<svg id="Capa_1" data-name="Capa 1" xmlns="http://www.w3.org/2000/svg" xmlns:xlink="http://www.w3.org/1999/xlink" viewBox="0 0 620.5 214.04"><defs><style>.cls-1{fill:url(#Degradado_sin_nombre_75);}.cls-2{fill:url(#Degradado_sin_nombre_74);}.cls-3{fill:#203f55;}</style><linearGradient id="Degradado_sin_nombre_75" x1="87.05" y1="112.75" x2="106.57" y2="187.93" gradientUnits="userSpaceOnUse"><stop offset="0" stop-color="#bf311c"/><stop offset="0.38" stop-color="#bc301d"/><stop offset="0.68" stop-color="#b22f22"/><stop offset="0.96" stop-color="#a12c29"/><stop offset="1" stop-color="#9e2b2a"/></linearGradient><radialGradient id="Degradado_sin_nombre_74" cx="260.73" cy="10.3" r="155.83" gradientUnits="userSpaceOnUse"><stop offset="0" stop-color="#fa8386"/><stop offset="0.33" stop-color="#d0493b"/><stop offset="0.48" stop-color="#bf311c"/><stop offset="1" stop-color="#b52e25"/></radialGradient></defs><title>Mesa de trabajo 2 copy</title><path class="cls-1" d="M90.26,183.21l1.21.28c.81.18,1.61.35,2.42.51,1.62.32,3.24.59,4.86.82s3.25.4,4.88.53c1.79.14,2.6.17,4.52.19a70.4,70.4,0,0,0,23.4-3.93C68.88,139,43.14,102.52,43.14,78.45c0-17.11,5.44-41.35,33.76-41.64,30-.3,35.76,24.8,41.88,21.27,2-1.14.93-3.85-1-7.06-1.58-2.62-4.47-4.86-3.4-5.12,2.93-.73,6.07,1.93,7.19,3.13,3.21,3.4,5.68,11.46,9.13,9.29,2.44-1.53,1.1-5-.79-8.82-1.43-2.86-3-4.34-2.56-4.64s2.36,1.58,4.24,4.29c2.2,3.19,4.09,3.11,5.37,2.27,1.73-1.13,1.34-4-.2-6.21-1.67-2.37-3.51-3.61-3.15-4s2.17.79,4.14,2.86c1.8,1.89,4.19,1.63,4.73,1.09,1.09-1.09,3.5-3.21-2.81-11C133.89,27.06,109.15,12.14,78,12.29,34.1,12.5,5.14,38.78,5.14,79.66c0,43.3,51.32,83.42,68.76,98.19l1.47.58q2.37.93,4.79,1.77c3.09,1.07,6.23,2,9.4,2.85Z"/><path class="cls-2" d="M279.42,19.81C277.74,17.88,257.82-6,210.05,6.05A119.11,119.11,0,0,0,176.18,20.7c-11.9,7.38-23.37,15.9-33.07,26-4.65,4.82-9.2,12.46-11.61,18-1.39,3.19-3.73,11.18-1.1,12.71,4.48,2.59,5.71-7.2,7.3-6.45.57.27-4.64,8.77.23,10.43,6.09,2.09,5.76-9.3,7.33-9.36.92,0-4.5,15,2.36,14.24,4.06-.43,1.59-7.66,4.91-13.22,1.51-2.53,4.3-5.32,5.63-4.62.93.49-5.13,10.29,0,12.58,4.17,1.87,5.57-6,7.71-9.8,6.74-12,44.72-49.12,71.45-43.72,20.41,4.13,10.24,37.17,4.15,52.71-11.88,30.36-55.11,84.33-95.46,106-11.54,6.21-24.9,7.54-37.94,6.5A98.33,98.33,0,0,1,88.5,189c3.74,2.65,25.11,17.72,33.2,19.68,13,3.16,32,5.13,54.27-7.89,9.83-5.73,69.91-45.37,102.14-118.27C294.16,46.2,286.44,27.88,279.42,19.81Z"/><path class="cls-3" d="M347.72,152a27.21,27.21,0,0,1,1.8-9.89,24.21,24.21,0,0,1,13.31-13.73,26.58,26.58,0,0,1,10.65-2,25.09,25.09,0,0,1,13.26,3.38,21.4,21.4,0,0,1,8.32,9l-10.18,3.23a13.09,13.09,0,0,0-11.59-6.65,13.89,13.89,0,0,0-10.55,4.7,16.56,16.56,0,0,0-3.14,5.28,19.12,19.12,0,0,0-1.14,6.75,18.33,18.33,0,0,0,1.19,6.7,17,17,0,0,0,3.23,5.37,14.83,14.83,0,0,0,4.75,3.56,13.21,13.21,0,0,0,5.75,1.29,14.16,14.16,0,0,0,3.8-.53,13,13,0,0,0,3.47-1.47,13.34,13.34,0,0,0,2.76-2.18,8.42,8.42,0,0,0,1.76-2.67l10.27,3.05a20.38,20.38,0,0,1-8.27,9.17,27.92,27.92,0,0,1-24.24,1.47,24.81,24.81,0,0,1-8.13-5.65,25.71,25.71,0,0,1-5.23-8.23A26.57,26.57,0,0,1,347.72,152Z"/><path class="cls-3" d="M426.14,177.85a26.47,26.47,0,0,1-10.55-2,24.59,24.59,0,0,1-8.13-5.56,25.17,25.17,0,0,1-5.23-8.18,26.57,26.57,0,0,1-1.85-9.88,27,27,0,0,1,1.85-9.94,25.67,25.67,0,0,1,5.23-8.27,24.25,24.25,0,0,1,8.13-5.6,26.53,26.53,0,0,1,10.64-2,25.68,25.68,0,0,1,10.51,2.09,25.23,25.23,0,0,1,8,5.56,24,24,0,0,1,5.09,8.08,26.92,26.92,0,0,1,1.76,9.65c0,.76,0,1.48-.1,2.14s-.13,1.22-.19,1.66H411.5a16.9,16.9,0,0,0,1.57,6,15.35,15.35,0,0,0,3.33,4.61,14.5,14.5,0,0,0,10.12,4,16.66,16.66,0,0,0,4.14-.52,14.82,14.82,0,0,0,3.75-1.52,13.5,13.5,0,0,0,3-2.42,11.11,11.11,0,0,0,2.09-3.14l8.94,2.57a20.73,20.73,0,0,1-8.51,9.17A26.32,26.32,0,0,1,426.14,177.85Zm15.11-29.56a16.88,16.88,0,0,0-1.56-5.8,15,15,0,0,0-3.28-4.51,14.49,14.49,0,0,0-4.66-2.9,15.19,15.19,0,0,0-5.61-1.05,14.74,14.74,0,0,0-5.56,1.05A14.59,14.59,0,0,0,416,138a14.2,14.2,0,0,0-3.23,4.51,17.3,17.3,0,0,0-1.52,5.8Z"/><path class="cls-3" d="M488.12,136.22a23.3,23.3,0,0,0-10.79,2.8,14.79,14.79,0,0,0-6.7,7.46V176.9H460.17V127.19h9.7v11.12a22.7,22.7,0,0,1,6.7-8.22,16.24,16.24,0,0,1,8.89-3.38H487a5.22,5.22,0,0,1,1.1.1Z"/><path class="cls-3" d="M490,152a27.21,27.21,0,0,1,1.8-9.89,24.3,24.3,0,0,1,13.31-13.73,26.58,26.58,0,0,1,10.65-2A25.09,25.09,0,0,1,529,129.71a21.4,21.4,0,0,1,8.32,9l-10.17,3.23a13.13,13.13,0,0,0-11.6-6.65,14,14,0,0,0-5.85,1.23A14.2,14.2,0,0,0,505,140a16.56,16.56,0,0,0-3.14,5.28,19.12,19.12,0,0,0-1.14,6.75,18.54,18.54,0,0,0,1.19,6.7,17.21,17.21,0,0,0,3.23,5.37,14.83,14.83,0,0,0,4.75,3.56,13.24,13.24,0,0,0,5.75,1.29,14.29,14.29,0,0,0,3.81-.53,13.28,13.28,0,0,0,3.47-1.47,13.55,13.55,0,0,0,2.75-2.18,8.25,8.25,0,0,0,1.76-2.67l10.27,3.05a20.38,20.38,0,0,1-8.27,9.17,27.92,27.92,0,0,1-24.24,1.47,24.81,24.81,0,0,1-8.13-5.65,25.71,25.71,0,0,1-5.23-8.23A26.57,26.57,0,0,1,490,152Z"/><path class="cls-3" d="M559.6,177.85a18.54,18.54,0,0,1-6.7-1.18,16.14,16.14,0,0,1-5.32-3.29,15.16,15.16,0,0,1-3.52-4.94,14.8,14.8,0,0,1-1.28-6.18,13.29,13.29,0,0,1,1.52-6.37,14.88,14.88,0,0,1,4.32-4.94,21.07,21.07,0,0,1,6.66-3.23,29.83,29.83,0,0,1,8.5-1.14,39.11,39.11,0,0,1,6.94.62,34.64,34.64,0,0,1,6.18,1.66v-3.42c0-3.68-1-6.54-3.14-8.6s-5.1-3.09-9-3.09a21.83,21.83,0,0,0-7.84,1.47,39.5,39.5,0,0,0-7.94,4.23l-3.23-6.66a35.33,35.33,0,0,1,20-6.46q10.27,0,16,5.23t5.71,15v18q0,3.33,2.75,3.43v8.93a26.09,26.09,0,0,1-2.61.38c-.73.06-1.44.1-2.14.1a6.71,6.71,0,0,1-4.7-1.52,6.52,6.52,0,0,1-2-3.9l-.28-3.14a22.08,22.08,0,0,1-8.23,6.7A24,24,0,0,1,559.6,177.85Zm2.85-7.7a18.77,18.77,0,0,0,7.18-1.38,12.22,12.22,0,0,0,5.27-3.85,4.79,4.79,0,0,0,2-3.61v-6.56a32.16,32.16,0,0,0-5.65-1.61,31.31,31.31,0,0,0-5.85-.57,16,16,0,0,0-9.17,2.42,7.44,7.44,0,0,0-3.57,6.42,8.07,8.07,0,0,0,2.76,6.22A10,10,0,0,0,562.45,170.15Z"/><path class="cls-3" d="M401.58,42H381.05v53.8H365.46V42H344.83V28.3h56.75Z"/><path class="cls-3" d="M420.88,96.75a29.1,29.1,0,0,1-11.37-2.1A24.66,24.66,0,0,1,401.1,89a23.87,23.87,0,0,1-5.18-8.27,28.39,28.39,0,0,1,0-19.68,23.87,23.87,0,0,1,5.18-8.27,25.21,25.21,0,0,1,8.41-5.7,28.57,28.57,0,0,1,11.37-2.14,28.2,28.2,0,0,1,11.31,2.14,25.3,25.3,0,0,1,8.36,5.7,24.44,24.44,0,0,1,5.23,8.27,27.34,27.34,0,0,1,1.81,9.84,28,28,0,0,1-1.76,9.84A24,24,0,0,1,440.65,89a24.61,24.61,0,0,1-8.42,5.65A29,29,0,0,1,420.88,96.75ZM409.75,70.89a13.81,13.81,0,0,0,3.14,9.46,10.18,10.18,0,0,0,8,3.56,10,10,0,0,0,4.37-1,10.53,10.53,0,0,0,3.47-2.66,12.84,12.84,0,0,0,2.33-4.13,15.8,15.8,0,0,0,.85-5.28q0-5.9-3.14-9.46a10,10,0,0,0-7.88-3.56,10.3,10.3,0,0,0-7.94,3.61,12.66,12.66,0,0,0-2.33,4.13A15.8,15.8,0,0,0,409.75,70.89Z"/><path class="cls-3" d="M475.82,96.75a22.87,22.87,0,0,1-9.46-2,21.86,21.86,0,0,1-7.46-5.47,25.66,25.66,0,0,1-4.9-8.22,29.34,29.34,0,0,1-1.76-10.32,31.33,31.33,0,0,1,1.62-10.17,25.13,25.13,0,0,1,4.56-8.22,21.75,21.75,0,0,1,7-5.47,19.77,19.77,0,0,1,8.89-2,18.42,18.42,0,0,1,9.46,2.47,17.18,17.18,0,0,1,6.51,6.65V26.4h15.21V78.68a5.26,5.26,0,0,0,.71,3.19A3.5,3.5,0,0,0,508.71,83V95.79a27.49,27.49,0,0,1-3.62.62q-1.51.15-2.85.15a11.36,11.36,0,0,1-6.46-1.67,6.41,6.41,0,0,1-2.85-4.8l-.29-2.57a17,17,0,0,1-7.17,6.94A21,21,0,0,1,475.82,96.75Zm4.08-12.84a11.07,11.07,0,0,0,6-1.85A11.91,11.91,0,0,0,490.36,77V66.52a13.74,13.74,0,0,0-4.61-6.23,10.73,10.73,0,0,0-6.61-2.42A9.4,9.4,0,0,0,474.63,59a12.28,12.28,0,0,0-3.57,2.9A12.72,12.72,0,0,0,468.74,66a15.57,15.57,0,0,0-.81,5,14.33,14.33,0,0,0,.9,5.13,12.6,12.6,0,0,0,2.47,4.09A10.83,10.83,0,0,0,475.1,83,12,12,0,0,0,479.9,83.91Z"/><path class="cls-3" d="M541,96.75a29,29,0,0,1-11.36-2.1A24.7,24.7,0,0,1,521.25,89a24,24,0,0,1-5.18-8.27,28.39,28.39,0,0,1,0-19.68,24,24,0,0,1,5.18-8.27,25.25,25.25,0,0,1,8.42-5.7,31.09,31.09,0,0,1,22.67,0,25.3,25.3,0,0,1,8.36,5.7,24.44,24.44,0,0,1,5.23,8.27,27.34,27.34,0,0,1,1.81,9.84A28,28,0,0,1,566,80.73,23.87,23.87,0,0,1,560.8,89a24.66,24.66,0,0,1-8.41,5.65A29.09,29.09,0,0,1,541,96.75ZM529.9,70.89A13.81,13.81,0,0,0,533,80.35a10.18,10.18,0,0,0,8,3.56,10,10,0,0,0,4.37-1,10.53,10.53,0,0,0,3.47-2.66,12.84,12.84,0,0,0,2.33-4.13,15.8,15.8,0,0,0,.85-5.28q0-5.9-3.13-9.46A10.07,10.07,0,0,0,541,57.87a10.34,10.34,0,0,0-7.94,3.61,12.84,12.84,0,0,0-2.33,4.13A15.8,15.8,0,0,0,529.9,70.89Z"/><path class="cls-3" d="M594.92,96.75a39.73,39.73,0,0,1-12.54-2,28.58,28.58,0,0,1-10.46-5.94l5.42-9.31a45.06,45.06,0,0,0,8.88,4.84A22.63,22.63,0,0,0,594.54,86a8.38,8.38,0,0,0,4.57-1,3.41,3.41,0,0,0,1.61-3,3.6,3.6,0,0,0-2-3.19,31.9,31.9,0,0,0-7.18-2.52c-3.36-.95-6.19-1.87-8.51-2.75a23.86,23.86,0,0,1-5.65-2.95,9.51,9.51,0,0,1-3.14-3.71,11.89,11.89,0,0,1-1-4.94A15.53,15.53,0,0,1,579,49.6a20,20,0,0,1,6.32-3.43,24.79,24.79,0,0,1,7.94-1.23,35.42,35.42,0,0,1,10.51,1.52A26.2,26.2,0,0,1,613.17,52l-5.89,9.13a40.21,40.21,0,0,0-7.6-4.28,17.34,17.34,0,0,0-6.47-1.33,8.11,8.11,0,0,0-4.18,1,3.7,3.7,0,0,0,.14,6.32,30.49,30.49,0,0,0,6.89,2.28,87.82,87.82,0,0,1,9,2.85A24.06,24.06,0,0,1,611,71.13a10.7,10.7,0,0,1,3.32,4,12.84,12.84,0,0,1,1.05,5.42,14.25,14.25,0,0,1-5.51,11.78Q604.33,96.75,594.92,96.75Z"/><path class="cls-3" d="M373,115.08c-9.73,0-22.44.66-23.65,1.2-1.46.8,1.94.88,12.64.59,10-.25,19,0,19.51.7C382.25,119,377.8,119,353,119l-13.12-.08,10.45.7,11.91.62-9.72.73c-5.59.52-10,1.22-10.21,2-.24.5-2.19,1.08-4.38,1.19-1,2.48-2.18,4.72-2.67,4.75-.73,0-2.92,3.79-5.1,8.52l-3.65,8.68L329,137c1.7-6.65,1.22-5.17-2.19,5.7C321.9,157.5,319,164,318.5,160.1c0-1,1.94-7.39,4.37-13.83,2.43-6.68,4.13-12.11,3.65-12.33-.49,0-3.16,6.72-6.08,15.37-6.07,17.8-8.5,23-10.21,21.65-.73-.69-.73-2.88.49-5.86,1-3.69,1-4.42-.24-3.15L309,163.73l.48-2a27.41,27.41,0,0,0,.73-4.41L320.69,125c-7.05.59-14.59,1.21-21.64,1.31-14.09.46-17.5-.35-19.93-3.87-1.7-2.35-1.94-3.55-.73-5.56,1-2,1-3,.25-3.9-1-.68-.73-1.18.73-1.74a3.15,3.15,0,0,0,1.94-2.28c0-1.94,2.67-3,4.37-1.92.73.45,14.83.73,31.12.65,3.4-.16,6.56-.08,9.72-.23,13.12-38.81,15.07-43.77,16.28-43.34,1,.43,1.71.15,1.71-.57,0-.49,2.43-.61,5.59.21,7.29,1.58,8.5,4.19,6.56,13.53A82.62,82.62,0,0,1,352,90.87c-1.94,5-4.86,10.69-7.29,16.65,16.77-.1,29.48.45,35.8,1.11l7.05.87-7.78,1.35-7.53,1.35,10.93-.54c9.48-.47,17.59-1.27,18.38.79C402.68,115.26,395.86,114.92,373,115.08Zm-57.44,36.17a2.21,2.21,0,0,0-.49,2c.25.47.73,0,1-1C316.55,151,316.31,150.49,315.58,151.25Zm5.11-21.4a42.33,42.33,0,0,0-2.92,8.17c-.49,2.21.49.46,1.94-4.23C321.17,129.34,321.66,127.37,320.69,129.85Zm-2.19,13a3.61,3.61,0,0,0-.73,2.71c0,.73.24.23.73-1.25S319,142.33,318.5,142.84Zm7.29-32.93c-3.65.18-5.35.51-4.86,1a17.77,17.77,0,0,0,4.37.51Zm-1.22,15.38a3.28,3.28,0,0,0-1,2.47c0,.73.49.22,1-1C325.06,125.26,325.06,124.53,324.57,125.29ZM329.92,110l-1.21.06a3.09,3.09,0,0,0-.25,1.47l1,.2Zm1-7.1-1.45,3.48c0,.49-.25.74-.25,1.23l1,0c0-.24.24-.5.24-1Zm25.28,6.78c-3.64.18-8,.15-12.64.13l-.48,1.73c4.37-.22,8.5-.42,11.42-.81,4.13-.44,5.11-.25,3.4.32-2.18.84-1.45,1,3.65,1,4.62,0,5.83-.29,3.89-.93-2.68-.59-2.43-.85,1.21-1.27C368.57,109.5,364,109.48,356.17,109.63Z"/></svg>