<svg id="Layer_1" data-name="Layer 1" xmlns="http://www.w3.org/2000/svg" xmlns:xlink="http://www.w3.org/1999/xlink" viewBox="0 0 1200 1200"><defs><style>.cls-1{fill:url(#Degradado_sin_nombre_75);}.cls-2{fill:url(#Degradado_sin_nombre_74);}.cls-3{fill:#144057;}</style><linearGradient id="Degradado_sin_nombre_75" x1="213.02" y1="610.26" x2="246.86" y2="740.61" gradientUnits="userSpaceOnUse"><stop offset="0" stop-color="#cf1b00"/><stop offset="0.36" stop-color="#cc1b03"/><stop offset="0.66" stop-color="#c21b0d"/><stop offset="0.93" stop-color="#b11b1d"/><stop offset="1" stop-color="#ab1b23"/></linearGradient><radialGradient id="Degradado_sin_nombre_74" cx="514.15" cy="432.64" r="270.18" gradientUnits="userSpaceOnUse"><stop offset="0" stop-color="#ff7b82"/><stop offset="0.07" stop-color="#f76b6c"/><stop offset="0.35" stop-color="#da321f"/><stop offset="0.48" stop-color="#cf1b00"/><stop offset="1" stop-color="#c41918"/></radialGradient></defs><title>01-logo-colors</title><path class="cls-1" d="M218.59,732.43c.69.16,1.39.33,2.09.48,1.4.31,2.8.61,4.2.88q4.2.83,8.43,1.42t8.45.92c3.1.24,4.52.3,7.83.33a122.18,122.18,0,0,0,40.59-6.81C181.51,655.78,136.89,592.52,136.89,550.79c0-29.67,9.43-71.7,58.53-72.19,52.07-.52,62,43,72.62,36.88,3.44-2,1.6-6.69-1.73-12.24-2.73-4.55-7.74-8.43-5.89-8.89,5.08-1.27,10.52,3.36,12.47,5.42,5.55,5.9,9.84,19.88,15.82,16.12,4.23-2.66,1.91-8.75-1.36-15.3-2.48-5-5.15-7.51-4.45-8s4.11,2.74,7.35,7.44c3.82,5.53,7.1,5.39,9.32,3.93,3-2,2.33-7-.34-10.77-2.91-4.1-6.1-6.25-5.47-6.84s3.76,1.37,7.18,5c3.12,3.28,7.26,2.82,8.2,1.88,1.88-1.88,6.07-5.55-4.87-19.06-10-12.4-52.94-38.28-107-38C121.22,436.45,71,482,71,552.89,71,628,160,697.52,190.22,723.12c.84.34,1.69.69,2.54,1q4.13,1.61,8.31,3.06c5.37,1.87,10.8,3.55,16.31,4.94Z"/><path class="cls-2" d="M546.55,449.12c-2.91-3.34-37.45-44.81-120.28-23.85a207,207,0,0,0-58.72,25.39c-20.63,12.81-40.52,27.57-57.34,45-8.06,8.36-16,21.59-20.12,31.13-2.42,5.53-6.47,19.4-1.91,22,7.76,4.5,9.9-12.49,12.65-11.19,1,.47-8,15.21.39,18.09,10.57,3.62,10-16.13,12.72-16.22,1.6-.06-7.8,26,4.09,24.69,7-.76,2.77-13.28,8.52-22.94,2.61-4.38,7.45-9.21,9.75-8,1.63.85-8.89,17.84,0,21.82,7.24,3.23,9.67-10.4,13.38-17,11.67-20.75,77.54-85.17,123.88-75.8,35.39,7.15,17.75,64.44,7.19,91.39-20.6,52.63-95.54,146.21-165.51,183.85-20,10.76-43.18,13.07-65.78,11.28a171.72,171.72,0,0,1-33.92-6.36c6.47,4.6,43.53,30.73,57.55,34.12,22.6,5.48,55.42,8.9,94.09-13.67C384.23,753,488.4,684.23,544.27,557.83,572.1,494.87,558.71,463.11,546.55,449.12Z"/><path class="cls-3" d="M665,678.31a46.9,46.9,0,0,1,3.13-17.14,41.94,41.94,0,0,1,23.08-23.82,46.27,46.27,0,0,1,18.45-3.54q13.35,0,23,5.85A37.18,37.18,0,0,1,747,655.23l-17.64,5.61a22.67,22.67,0,0,0-8.4-8.49,23,23,0,0,0-11.71-3.05,24.09,24.09,0,0,0-10.13,2.14,24.54,24.54,0,0,0-8.16,6,28.67,28.67,0,0,0-5.44,9.14,33.11,33.11,0,0,0-2,11.71,32.14,32.14,0,0,0,2.06,11.61,29.83,29.83,0,0,0,5.61,9.32,26,26,0,0,0,8.24,6.18,23,23,0,0,0,10,2.22,24.91,24.91,0,0,0,6.59-.9,23.63,23.63,0,0,0,10.8-6.35,14.51,14.51,0,0,0,3-4.61l17.8,5.27A35.28,35.28,0,0,1,733.36,717q-10.07,6.18-23.74,6.18a44.87,44.87,0,0,1-18.29-3.62,43.07,43.07,0,0,1-14.09-9.81,44.58,44.58,0,0,1-9.07-14.25A46,46,0,0,1,665,678.31Z"/><path class="cls-3" d="M800.93,723.13a45.86,45.86,0,0,1-18.29-3.54,42.44,42.44,0,0,1-14.1-9.64,43.39,43.39,0,0,1-9.06-14.17,46,46,0,0,1-3.21-17.14,46.63,46.63,0,0,1,3.21-17.23,44.14,44.14,0,0,1,9.06-14.34,41.91,41.91,0,0,1,14.1-9.72,46.27,46.27,0,0,1,18.45-3.54,44.5,44.5,0,0,1,18.22,3.62,43.71,43.71,0,0,1,13.92,9.64,41.24,41.24,0,0,1,8.82,14,46.62,46.62,0,0,1,3.05,16.73c0,1.32-.06,2.56-.16,3.71s-.23,2.12-.34,2.88H775.55a29.62,29.62,0,0,0,2.72,10.39,27,27,0,0,0,5.77,8,25.36,25.36,0,0,0,17.55,7,29.12,29.12,0,0,0,7.17-.91,25.33,25.33,0,0,0,6.51-2.64,22.88,22.88,0,0,0,5.27-4.2,19.61,19.61,0,0,0,3.63-5.44l15.49,4.45A35.92,35.92,0,0,1,824.91,717Q814.61,723.13,800.93,723.13Zm26.2-51.25a29.09,29.09,0,0,0-2.71-10.06,26,26,0,0,0-5.69-7.82,25.28,25.28,0,0,0-8.08-5,26.3,26.3,0,0,0-9.72-1.81,25.66,25.66,0,0,0-9.64,1.81,25.31,25.31,0,0,0-8,5,24.79,24.79,0,0,0-5.61,7.82,30.17,30.17,0,0,0-2.64,10.06Z"/><path class="cls-3" d="M908.38,651a40.56,40.56,0,0,0-18.7,4.86,25.6,25.6,0,0,0-11.62,12.94v52.74H859.93v-86.2h16.81v19.28a39.45,39.45,0,0,1,11.62-14.25,28.1,28.1,0,0,1,15.41-5.85h2.72a9.73,9.73,0,0,1,1.89.16Z"/><path class="cls-3" d="M911.68,678.31a47.11,47.11,0,0,1,3.13-17.14,42,42,0,0,1,23.08-23.82,46.28,46.28,0,0,1,18.46-3.54q13.35,0,23,5.85a37.12,37.12,0,0,1,14.42,15.57l-17.64,5.61a22.6,22.6,0,0,0-8.4-8.49A23,23,0,0,0,956,649.3a24.11,24.11,0,0,0-10.14,2.14,24.54,24.54,0,0,0-8.16,6,28.85,28.85,0,0,0-5.44,9.14,33.34,33.34,0,0,0-2,11.71,31.92,31.92,0,0,0,2.06,11.61,29.81,29.81,0,0,0,5.6,9.32,26,26,0,0,0,8.24,6.18,23,23,0,0,0,10,2.22,24.91,24.91,0,0,0,6.59-.9,23.63,23.63,0,0,0,10.8-6.35,14.51,14.51,0,0,0,3-4.61l17.8,5.27A35.28,35.28,0,0,1,980.08,717q-10.05,6.18-23.73,6.18a44.88,44.88,0,0,1-18.3-3.62A43.07,43.07,0,0,1,924,709.7a44.38,44.38,0,0,1-9.06-14.25A45.81,45.81,0,0,1,911.68,678.31Z"/><path class="cls-3" d="M1032.32,723.13a32,32,0,0,1-11.62-2.06,28,28,0,0,1-9.23-5.68,26.46,26.46,0,0,1-6.09-8.57,25.72,25.72,0,0,1-2.23-10.71,23.1,23.1,0,0,1,2.64-11.05,25.82,25.82,0,0,1,7.5-8.57,36.53,36.53,0,0,1,11.53-5.6,51.77,51.77,0,0,1,14.76-2,68,68,0,0,1,12,1.07,61.15,61.15,0,0,1,10.71,2.89v-5.94q0-9.55-5.44-14.91t-15.66-5.36a37.6,37.6,0,0,0-13.59,2.56,68.79,68.79,0,0,0-13.76,7.33L1008.26,645q16.65-11.21,34.61-11.2,17.81,0,27.69,9.06t9.89,26v31.15q0,5.78,4.78,5.93v15.5c-1.76.33-3.27.54-4.53.66s-2.5.16-3.71.16q-5.28,0-8.16-2.64a11.21,11.21,0,0,1-3.54-6.75l-.5-5.44a38.54,38.54,0,0,1-14.25,11.62A41.89,41.89,0,0,1,1032.32,723.13Zm5-13.34a32.47,32.47,0,0,0,12.44-2.4,21.42,21.42,0,0,0,9.15-6.67c2.31-2,3.46-4.06,3.46-6.26V683.09a54.91,54.91,0,0,0-9.81-2.81,54,54,0,0,0-10.13-1q-9.74,0-15.91,4.21t-6.18,11.12a14,14,0,0,0,4.78,10.8A17.4,17.4,0,0,0,1037.27,709.79Z"/><path class="cls-3" d="M758.35,487.58h-35.6v93.28h-27V487.58H660V463.85h98.4Z"/><path class="cls-3" d="M791.8,582.51a50.64,50.64,0,0,1-19.69-3.62,43,43,0,0,1-14.59-9.81,41.43,41.43,0,0,1-9-14.34,49.24,49.24,0,0,1,0-34.12,41.48,41.48,0,0,1,9-14.33,43.76,43.76,0,0,1,14.59-9.89,49.39,49.39,0,0,1,19.69-3.71,48.82,48.82,0,0,1,19.61,3.71,44,44,0,0,1,14.51,9.89A42.59,42.59,0,0,1,835,520.62a47.17,47.17,0,0,1,3.13,17.06,48.19,48.19,0,0,1-3.05,17.06,41.28,41.28,0,0,1-9,14.34,42.85,42.85,0,0,1-14.58,9.81A50.73,50.73,0,0,1,791.8,582.51Zm-19.28-44.83q0,10.23,5.44,16.4a17.62,17.62,0,0,0,13.84,6.18,17.38,17.38,0,0,0,7.58-1.65,18.09,18.09,0,0,0,6-4.61,22.28,22.28,0,0,0,4-7.17,27.52,27.52,0,0,0,1.48-9.15q0-10.21-5.44-16.4a17.46,17.46,0,0,0-13.68-6.18A17.94,17.94,0,0,0,778,521.36a22,22,0,0,0-4,7.18A27.25,27.25,0,0,0,772.52,537.68Z"/><path class="cls-3" d="M887.06,582.51a39.51,39.51,0,0,1-16.4-3.38,38.19,38.19,0,0,1-12.94-9.47,44.77,44.77,0,0,1-8.48-14.26,50.54,50.54,0,0,1-3-17.88,54.39,54.39,0,0,1,2.8-17.64,43.24,43.24,0,0,1,7.91-14.25A37.56,37.56,0,0,1,869,496.15a34.28,34.28,0,0,1,15.41-3.46,32,32,0,0,1,16.4,4.28,29.65,29.65,0,0,1,11.29,11.54v-48h26.37V551.2c0,2.63.41,4.48,1.24,5.52s2.28,1.67,4.36,1.89v22.25a48.62,48.62,0,0,1-6.26,1.07c-1.76.17-3.4.25-4.94.25q-6.93,0-11.21-2.88a11.11,11.11,0,0,1-4.94-8.33l-.5-4.45a29.4,29.4,0,0,1-12.44,12A36.57,36.57,0,0,1,887.06,582.51Zm7.09-22.25a19.17,19.17,0,0,0,10.46-3.21,20.72,20.72,0,0,0,7.67-8.82V530.1a23.81,23.81,0,0,0-8-10.79,18.65,18.65,0,0,0-11.45-4.21A16.37,16.37,0,0,0,885,517a20.89,20.89,0,0,0-6.18,5,22,22,0,0,0-4,7.25,27.07,27.07,0,0,0-1.4,8.73,24.68,24.68,0,0,0,1.57,8.9,21.81,21.81,0,0,0,4.28,7.09,18.63,18.63,0,0,0,6.59,4.61A21.06,21.06,0,0,0,894.15,560.26Z"/><path class="cls-3" d="M1000.12,582.51a50.73,50.73,0,0,1-19.7-3.62,43,43,0,0,1-14.58-9.81,41.28,41.28,0,0,1-9-14.34,49.24,49.24,0,0,1,0-34.12,41.33,41.33,0,0,1,9-14.33,43.72,43.72,0,0,1,14.58-9.89,49.47,49.47,0,0,1,19.7-3.71,48.82,48.82,0,0,1,19.61,3.71,44,44,0,0,1,14.51,9.89,42.59,42.59,0,0,1,9.06,14.33,47.17,47.17,0,0,1,3.13,17.06,48.42,48.42,0,0,1-3,17.06,41.28,41.28,0,0,1-9,14.34,43,43,0,0,1-14.59,9.81A50.64,50.64,0,0,1,1000.12,582.51Zm-19.28-44.83q0,10.23,5.44,16.4a17.62,17.62,0,0,0,13.84,6.18,17.41,17.41,0,0,0,7.58-1.65,18.09,18.09,0,0,0,6-4.61,22.07,22.07,0,0,0,4-7.17,27.27,27.27,0,0,0,1.49-9.15q0-10.21-5.44-16.4a17.46,17.46,0,0,0-13.68-6.18,17.94,17.94,0,0,0-13.76,6.26,22,22,0,0,0-4,7.18A27.25,27.25,0,0,0,980.84,537.68Z"/><path class="cls-3" d="M1093.57,582.51a68.91,68.91,0,0,1-21.76-3.54,49.76,49.76,0,0,1-18.13-10.3l9.4-16.15a78.37,78.37,0,0,0,15.4,8.4,39.13,39.13,0,0,0,14.43,3q5.1,0,7.91-1.82a5.89,5.89,0,0,0,2.8-5.27q0-3.46-3.54-5.52c-2.37-1.37-6.51-2.83-12.45-4.37s-10.74-3.24-14.75-4.78a41.41,41.41,0,0,1-9.8-5.11,16.43,16.43,0,0,1-5.44-6.43A20.49,20.49,0,0,1,1056,522a27,27,0,0,1,9.89-21.27,34.52,34.52,0,0,1,11-5.93,42.72,42.72,0,0,1,13.76-2.14,61,61,0,0,1,18.21,2.64,45.5,45.5,0,0,1,16.4,9.55L1115,520.71a69.57,69.57,0,0,0-13.18-7.42A30.11,30.11,0,0,0,1090.6,511a14.17,14.17,0,0,0-7.25,1.73,5.93,5.93,0,0,0-3,5.52,5.86,5.86,0,0,0,3.21,5.44q3.23,1.82,12,4a151.68,151.68,0,0,1,15.58,4.94,41.86,41.86,0,0,1,10.3,5.52,18.75,18.75,0,0,1,5.77,7,22.38,22.38,0,0,1,1.81,9.39q0,12.85-9.56,20.44T1093.57,582.51Z"/><path class="cls-3" d="M708.82,614.3c-16.85,0-38.89,1.14-41,2.08-2.53,1.39,3.37,1.52,21.91,1,17.28-.44,33,0,33.84,1.21,1.27,2.47-6.44,2.49-49.43,2.51L651.39,621l18.12,1.21,20.65,1.09-16.86,1.25c-9.69.9-17.28,2.12-17.7,3.4-.42.87-3.79,1.88-7.59,2.06-1.68,4.3-3.79,8.2-4.63,8.24-1.27.06-5.06,6.57-8.85,14.77l-6.32,15.06,4.21-15.8c3-11.53,2.11-9-3.79,9.88-8.43,25.7-13.49,36.91-14.33,30.2,0-1.68,3.37-12.8,7.59-24,4.21-11.59,7.16-21,6.32-21.38-.85,0-5.48,11.65-10.54,26.65-10.53,30.86-14.75,39.92-17.7,37.53-1.26-1.2-1.26-5,.84-10.15,1.69-6.41,1.69-7.67-.42-5.46l-2.53,3.08.85-3.42a48.88,48.88,0,0,0,1.26-7.64l18.12-56.11c-12.22,1-25.28,2.1-37.5,2.28-24.45.78-30.35-.61-34.56-6.72-2.95-4.07-3.37-6.16-1.26-9.63,1.68-3.46,1.68-5.14.42-6.77-1.69-1.18-1.27-2,1.26-3a5.47,5.47,0,0,0,3.37-4c0-3.37,4.64-5.28,7.59-3.32,1.26.78,25.71,1.26,53.94,1.12,5.9-.29,11.38-.14,16.86-.41,22.75-67.28,26.13-75.88,28.23-75.14,1.69.76,2.95.28,2.95-1,0-.84,4.22-1,9.69.37,12.65,2.74,14.75,7.27,11.38,23.45-1.68,6.83-5.05,17.53-8,23.58-3.38,8.59-8.43,18.53-12.65,28.86,29.08-.18,51.12.78,62.08,1.92l12.22,1.51L720.62,607l-13.06,2.33,19-.94c16.44-.81,30.49-2.19,31.86,1.38C760.26,614.62,748.44,614,708.82,614.3ZM609.24,677c-.84,1.31-1.26,2.59-.84,3.42s1.27-.07,1.69-1.77C610.93,676.51,610.51,675.69,609.24,677Zm8.85-37.1c-2.1,3.9-4.21,10.75-5.05,14.16-.85,3.83.84.8,3.37-7.33C618.94,639,619.78,635.61,618.09,639.91Zm-3.79,22.52c-.84,1.31-1.69,3-1.26,4.7,0,1.27.42.4,1.26-2.17S615.14,661.55,614.3,662.43Zm12.64-57.09c-6.32.31-9.27.88-8.43,1.68q1.28.57,7.59.89ZM624.84,632c-1.27.91-1.69,3-1.69,4.3s.84.38,1.69-1.77C625.68,632,625.68,630.69,624.84,632Zm9.27-26.58-2.11.1a5.49,5.49,0,0,0-.42,2.55l1.68.34Zm1.68-12.31-2.53,6c0,.84-.42,1.28-.42,2.13l1.69-.09c0-.42.42-.86.42-1.7Zm43.83,11.74c-6.32.32-13.91.27-21.91.24l-.85,3c7.59-.38,14.75-.73,19.81-1.41,7.16-.77,8.85-.43,5.9.56-3.79,1.45-2.53,1.81,6.32,1.79,8,0,10.12-.5,6.74-1.6-4.63-1-4.21-1.47,2.11-2.21C701.11,604.62,693.11,604.6,679.62,604.84Z"/></svg>