<svg id="Layer_1" data-name="Layer 1" xmlns="http://www.w3.org/2000/svg" viewBox="0 0 116.25 52.03"><defs><style>.cls-1{opacity:0.8;}.cls-2,.cls-3{fill:#fff;}.cls-2{stroke:#fff;stroke-miterlimit:10;stroke-width:0.25px;}.cls-4{fill:#00b13f;}</style></defs><title>04-optimus-logo-white</title><g class="cls-1"><path class="cls-2" d="M61,29.88a5.81,5.81,0,0,1,.26-1.77A4.36,4.36,0,0,1,62,26.65a3.68,3.68,0,0,1,1.26-1,4.28,4.28,0,0,1,3.47,0,3.68,3.68,0,0,1,1.26,1,4.36,4.36,0,0,1,.77,1.46,6.06,6.06,0,0,1,0,3.53A4.37,4.37,0,0,1,68,33.1a3.64,3.64,0,0,1-1.26,1,4.35,4.35,0,0,1-3.47,0,3.63,3.63,0,0,1-1.26-1,4.36,4.36,0,0,1-.77-1.46A5.8,5.8,0,0,1,61,29.88Zm.25,0a5.74,5.74,0,0,0,.29,1.74A4.12,4.12,0,0,0,62.23,33a3.39,3.39,0,0,0,1.18.9,4,4,0,0,0,3.16,0,3.39,3.39,0,0,0,1.18-.9,4.12,4.12,0,0,0,.75-1.38,5.64,5.64,0,0,0,0-3.48,4.13,4.13,0,0,0-.75-1.37,3.39,3.39,0,0,0-1.18-.9,4,4,0,0,0-3.16,0,3.39,3.39,0,0,0-1.18.9,4.13,4.13,0,0,0-.73,1.37A5.75,5.75,0,0,0,61.21,29.88Z" transform="translate(-11.55 -9.01)"/><path class="cls-2" d="M73.27,34.26V25.5h3.55a2.91,2.91,0,0,1,2,.6,2.23,2.23,0,0,1,.7,1.79,2.39,2.39,0,0,1-.21,1,2.09,2.09,0,0,1-.58.75,2.54,2.54,0,0,1-.88.46,3.91,3.91,0,0,1-1.12.15H73.5v4ZM76.81,30a3.17,3.17,0,0,0,1-.14,2.22,2.22,0,0,0,.77-.42,2,2,0,0,0,.51-.67,2.12,2.12,0,0,0,.18-.91,2.07,2.07,0,0,0-.6-1.59,2.6,2.6,0,0,0-1.82-.55H73.5V30Z" transform="translate(-11.55 -9.01)"/><path class="cls-2" d="M82.64,25.5h6.54v.25H86v8.51h-.25V25.75H82.64Z" transform="translate(-11.55 -9.01)"/><path class="cls-2" d="M93.07,25.5v8.76h-.25V25.5Z" transform="translate(-11.55 -9.01)"/><path class="cls-2" d="M105.82,25.5v8.76h-.25V25.81h0l-3.72,8.45h-.27l-3.72-8.45h0v8.45h-.25V25.5H98l3.71,8.44h0l3.71-8.44Z" transform="translate(-11.55 -9.01)"/><path class="cls-2" d="M116.77,25.5V31a3.63,3.63,0,0,1-.82,2.61,3.8,3.8,0,0,1-4.78,0,3.63,3.63,0,0,1-.82-2.61V25.5h.25V31a3.54,3.54,0,0,0,.72,2.41,3.48,3.48,0,0,0,4.49,0A3.53,3.53,0,0,0,116.5,31V25.5Z" transform="translate(-11.55 -9.01)"/><path class="cls-2" d="M126.88,26.82a2.09,2.09,0,0,0-.6-.75,2.31,2.31,0,0,0-.89-.41,4.8,4.8,0,0,0-1.1-.12,5.12,5.12,0,0,0-.94.09,2.77,2.77,0,0,0-.85.37,2,2,0,0,0-.66.62,1.73,1.73,0,0,0-.26,1,1.54,1.54,0,0,0,.26.94,2,2,0,0,0,.69.58,4,4,0,0,0,1,.34l1.1.26,1.16.31a3.73,3.73,0,0,1,1,.39,1.84,1.84,0,0,1,.64.65,2.14,2.14,0,0,1,.24,1.09,2,2,0,0,1-.27,1.07,2.27,2.27,0,0,1-.71.73,3.09,3.09,0,0,1-1,.42,4.92,4.92,0,0,1-1.12.13,5.29,5.29,0,0,1-1.38-.17,3,3,0,0,1-1.09-.55,2.45,2.45,0,0,1-.71-1,3.46,3.46,0,0,1-.24-1.42h.25a3.39,3.39,0,0,0,.23,1.33,2.26,2.26,0,0,0,.66.89,2.62,2.62,0,0,0,1,.5,5,5,0,0,0,1.28.15,4.54,4.54,0,0,0,1-.12,2.87,2.87,0,0,0,.91-.37,2.06,2.06,0,0,0,.66-.66,1.8,1.8,0,0,0,.25-1,1.72,1.72,0,0,0-.29-1,2.08,2.08,0,0,0-.74-.61,4.08,4.08,0,0,0-1-.34l-1-.24-1.06-.26a3.86,3.86,0,0,1-1-.37,1.92,1.92,0,0,1-.68-.64,1.89,1.89,0,0,1-.26-1,2,2,0,0,1,1-1.78,3.07,3.07,0,0,1,1-.37,5.26,5.26,0,0,1,1.06-.11,4.81,4.81,0,0,1,1.2.14,2.66,2.66,0,0,1,1,.45,2.24,2.24,0,0,1,.66.82,3.21,3.21,0,0,1,.28,1.25h-.24A2.79,2.79,0,0,0,126.88,26.82Z" transform="translate(-11.55 -9.01)"/><path class="cls-2" d="M65.14,37.54a1.14,1.14,0,0,0-.33-.41,1.26,1.26,0,0,0-.48-.22,2.57,2.57,0,0,0-.6-.07,2.84,2.84,0,0,0-.51,0,1.48,1.48,0,0,0-.48.18,1.08,1.08,0,0,0-.36.34.94.94,0,0,0-.14.53.84.84,0,0,0,.14.51,1.07,1.07,0,0,0,.37.31,2.18,2.18,0,0,0,.52.19l.6.14.63.17a2,2,0,0,1,.52.21,1,1,0,0,1,.35.35,1.16,1.16,0,0,1,.13.59,1.1,1.1,0,0,1-.15.58,1.24,1.24,0,0,1-.39.4,1.71,1.71,0,0,1-.54.23,2.71,2.71,0,0,1-.61.07,2.86,2.86,0,0,1-.75-.09,1.59,1.59,0,0,1-.59-.3,1.34,1.34,0,0,1-.39-.52,1.89,1.89,0,0,1-.13-.77h.13a1.83,1.83,0,0,0,.13.72,1.23,1.23,0,0,0,.36.48,1.43,1.43,0,0,0,.55.27,2.71,2.71,0,0,0,.7.08,2.46,2.46,0,0,0,.56-.06,1.57,1.57,0,0,0,.5-.2,1.13,1.13,0,0,0,.36-.36,1,1,0,0,0,.14-.53.94.94,0,0,0-.16-.57,1.14,1.14,0,0,0-.4-.33,2.26,2.26,0,0,0-.54-.19l-.57-.13L63.14,39a2.05,2.05,0,0,1-.52-.2,1,1,0,0,1-.51-.91,1.1,1.1,0,0,1,.15-.59,1.13,1.13,0,0,1,.38-.38,1.7,1.7,0,0,1,.52-.2,2.83,2.83,0,0,1,.58-.06,2.58,2.58,0,0,1,.65.08,1.47,1.47,0,0,1,.52.25,1.2,1.2,0,0,1,.36.45,1.75,1.75,0,0,1,.15.68h-.13A1.52,1.52,0,0,0,65.14,37.54Z" transform="translate(-11.55 -9.01)"/><path class="cls-2" d="M67.76,39.21a3.17,3.17,0,0,1,.14-1,2.36,2.36,0,0,1,.42-.79,2,2,0,0,1,.69-.54,2.33,2.33,0,0,1,1.89,0,2,2,0,0,1,.69.54,2.39,2.39,0,0,1,.42.79,3.3,3.3,0,0,1,0,1.92,2.4,2.4,0,0,1-.42.79,2,2,0,0,1-.69.54,2.36,2.36,0,0,1-1.89,0,2,2,0,0,1-.69-.54,2.37,2.37,0,0,1-.42-.79A3.18,3.18,0,0,1,67.76,39.21Zm.13,0a3.15,3.15,0,0,0,.15,1,2.24,2.24,0,0,0,.41.75,1.85,1.85,0,0,0,.64.49,2.18,2.18,0,0,0,1.72,0,1.85,1.85,0,0,0,.69-.5,2.23,2.23,0,0,0,.41-.75,3,3,0,0,0,0-1.89,2.24,2.24,0,0,0-.41-.75,1.85,1.85,0,0,0-.64-.49,2.17,2.17,0,0,0-1.72,0,1.85,1.85,0,0,0-.64.49,2.25,2.25,0,0,0-.41.75A3.16,3.16,0,0,0,67.89,39.21Z" transform="translate(-11.55 -9.01)"/><path class="cls-2" d="M78.27,40.52a2.07,2.07,0,0,1-.43.62,1.9,1.9,0,0,1-.62.41,2.15,2.15,0,0,1-.81.15,2,2,0,0,1-1.55-.7,2.36,2.36,0,0,1-.44-.77,2.92,2.92,0,0,1-.16-1,3.32,3.32,0,0,1,.12-.88,2.49,2.49,0,0,1,.39-.82,2.06,2.06,0,0,1,.69-.6,2.12,2.12,0,0,1,1-.23,2,2,0,0,1,.83.16,1.93,1.93,0,0,1,.59.39,1.7,1.7,0,0,1,.36.5,1.29,1.29,0,0,1,.13.49h-.13a1.3,1.3,0,0,0-.15-.51,1.58,1.58,0,0,0-.36-.45A1.84,1.84,0,0,0,77.2,37a2.13,2.13,0,0,0-1.69.11,2,2,0,0,0-.65.59,2.42,2.42,0,0,0-.36.78,3.15,3.15,0,0,0-.11.79,2.87,2.87,0,0,0,.13.87,2.24,2.24,0,0,0,.39.74,2,2,0,0,0,.64.51,1.86,1.86,0,0,0,.86.19,2,2,0,0,0,.77-.14,1.79,1.79,0,0,0,.59-.39,1.93,1.93,0,0,0,.4-.59,2.62,2.62,0,0,0,.21-.73h.12A2.86,2.86,0,0,1,78.27,40.52Z" transform="translate(-11.55 -9.01)"/><path class="cls-2" d="M80.88,36.83v4.76h-.13V36.83Z" transform="translate(-11.55 -9.01)"/><path class="cls-2" d="M83,41.59H82.9l1.93-4.76H85l1.88,4.76h-.15L86.11,40H83.68ZM84.92,37h0l-1.17,2.93h2.32Z" transform="translate(-11.55 -9.01)"/><path class="cls-2" d="M91.81,41.59H88.9V36.83H89v4.63h2.78Z" transform="translate(-11.55 -9.01)"/></g><path class="cls-3" d="M35.41,27.78a7.49,7.49,0,0,1,6,8.86h0L56.28,21.77,34.19,9l-22,12.73,23.3,6Z" transform="translate(-11.55 -9.01)"/><path class="cls-3" d="M34,42.65V42.6a7.5,7.5,0,0,1-5.07-2v0L34.61,61,56.83,48.22V22.88l-17,17A7.48,7.48,0,0,1,34,42.65Z" transform="translate(-11.55 -9.01)"/><path class="cls-3" d="M26.75,36.79l0,.08a7.37,7.37,0,0,1,5-8.87h0L11.55,22.73V48.22L33.42,60.85l-6.49-23.4Z" transform="translate(-11.55 -9.01)"/><path class="cls-3" d="M34.07,28.75a6.37,6.37,0,1,0,5.48,3.17A6.37,6.37,0,0,0,34.07,28.75Zm1.71,9.15a3.17,3.17,0,1,1,1.16-4.33A3.17,3.17,0,0,1,35.78,37.9Z" transform="translate(-11.55 -9.01)"/><path class="cls-4" d="M26.75,36.79l.18.65c-.06-.19-.09-.38-.14-.57Z" transform="translate(-11.55 -9.01)"/></svg>