<svg id="Layer_1" data-name="Layer 1" xmlns="http://www.w3.org/2000/svg" viewBox="0 0 70.5 81.04"><defs><style>.cls-1{fill:#ff1c36;}</style></defs><title>05-corazon</title><path class="cls-1" d="M56.06,15.46c-2.2-2.09-5.64-1.06-8,.16a17.27,17.27,0,0,0-7.23,7.55,64.23,64.23,0,0,0-5,11.73c-1.56-4.75-3.61-9.26-7.89-12.19A10.76,10.76,0,0,0,19,20.9c-2.91.83-6.37,3-6.54,6.28-.38,7.33,4.2,14.91,8.49,20.47,5.38,7,12,13,18.46,18.93.55.51,1.89-.06,3.07-.84,1.43-.48,3.8-2,4.1-2.66,3.68-7.94,7.35-16,9.52-24.47A56.3,56.3,0,0,0,57.95,26.3C58,23.24,58.5,17.77,56.06,15.46Zm-8.45,2.71c.67-.87.26-.76,1.47-.57a3.36,3.36,0,0,1,2.16,1.23,4.46,4.46,0,0,0-2.23,2q-1.32,3.85-2.58,7.73l.67-5.67c.06-.5-1.18-.16-2.47.45.56-1.14,1.15-2.26,1.8-3.34A18.35,18.35,0,0,1,47.61,18.17ZM28.67,32.67a7.25,7.25,0,0,0-.77.36l-1.63-4.14A20.56,20.56,0,0,1,28.67,32.67Zm-7.75,3.93a10.14,10.14,0,0,0,1.66-1l2.81,7.15c.16.4,1.4.06,2.63-.55a45.93,45.93,0,0,1,2.08,7.26c.1.48,1.11.12,2.2-.47q-.2,1.32-.36,2.64A59.91,59.91,0,0,1,20.92,36.61ZM36.32,56a1.21,1.21,0,0,0,.25-.39l2.81-8.7L38.2,56.72c-.08.67,2.49-.24,4-1.3Q42,58.2,41.74,61C39.95,59.35,38.12,57.67,36.32,56Zm11.26-4.42A201,201,0,0,1,52.66,23.9c0,.56.05,1.1.08,1.58C53.16,34.48,50.82,43.17,47.57,51.53Z"/></svg>