<svg id="Layer_1" data-name="Layer 1" xmlns="http://www.w3.org/2000/svg" viewBox="0 0 164 149.99"><defs><style>.cls-1{fill:#599b32;}.cls-2{fill:#5eae35;}.cls-3{fill:#fff;}</style></defs><title>07-1abaarrotes</title><path class="cls-1" d="M23.55,44.43v87.11a1,1,0,0,0,1,1H139.41a1,1,0,0,0,1-1V44.43Z"/><path class="cls-1" d="M23.55,74.3H140.45v5.92H23.55Z"/><path class="cls-2" d="M23.55,44.43H140.45v5.92H23.55Z"/><path class="cls-2" d="M61.24,44.43v6a7.6,7.6,0,0,0,7.6,7.6h32.11a9.81,9.81,0,0,0,9.81-9.81V44.43Z"/><path class="cls-1" d="M134.27,44.43v87.11a1,1,0,0,1-1,1h6.18a1,1,0,0,0,1-1V44.43Z"/><path class="cls-3" d="M68,93.4v39.19H96V93.4a2.62,2.62,0,0,0-2.62-2.62H70.64A2.62,2.62,0,0,0,68,93.4Z"/><path class="cls-2" d="M72,97.4a2.62,2.62,0,0,1,2.62-2.62H96V93.4a2.62,2.62,0,0,0-2.62-2.62H70.64A2.62,2.62,0,0,0,68,93.4v39.19h4Z"/><path class="cls-2" d="M17,62.55V73.26a1,1,0,0,0,1,1H146a1,1,0,0,0,1-1V62.55a1,1,0,0,0-1-1H18A1,1,0,0,0,17,62.55Z"/><path class="cls-1" d="M147.16,38.65V33.84H16.84v4.81a5.78,5.78,0,0,1,5.78,5.78H141.39A5.78,5.78,0,0,1,147.16,38.65Z"/><path class="cls-1" d="M61.24,33.84h49.53V44.43H61.24Z"/><path class="cls-2" d="M141,33.84v4.81a5.78,5.78,0,0,0-5.78,5.78h6.16a5.78,5.78,0,0,1,5.78-5.78V33.84Z"/><path class="cls-1" d="M57.24,25V46.46a7.6,7.6,0,0,0,7.6,7.6H99.16a7.6,7.6,0,0,0,7.6-7.6V25a7.6,7.6,0,0,0-7.6-7.6H64.84A7.6,7.6,0,0,0,57.24,25Z"/><path class="cls-3" d="M57.23,122.85a4.19,4.19,0,0,0,4.19-4.19V97.2A4.19,4.19,0,0,0,57.23,93H32.89A4.19,4.19,0,0,0,28.7,97.2v21.46a4.19,4.19,0,0,0,4.19,4.19Z"/><path class="cls-3" d="M130.09,122.85a4.19,4.19,0,0,0,4.19-4.19V97.2A4.19,4.19,0,0,0,130.09,93H105.75a4.19,4.19,0,0,0-4.19,4.19v21.46a4.19,4.19,0,0,0,4.19,4.19Z"/><path class="cls-1" d="M74.4,109.72H72.82a2,2,0,1,0,0,3.93H74.4a2,2,0,1,0,0-3.93Z"/><path class="cls-3" d="M67.91,27.22h2.41L72.8,39a5,5,0,0,0,4.87,4H89.34A5,5,0,0,0,94,39.78l3.86-10.21a3.16,3.16,0,0,0-3-4.28H78.37a2,2,0,0,0,0,3.93h15.4l-3.46,9.17a1,1,0,0,1-1,.67H77.66a1,1,0,0,1-1-.83L74.16,26.37a3.89,3.89,0,0,0-3.79-3.08H67.91a2,2,0,0,0,0,3.93Z"/><path class="cls-3" d="M78,44.64h-.52a2,2,0,0,0,0,3.93H78a2,2,0,1,0,0-3.93Z"/><path class="cls-3" d="M86.52,44.64H86a2,2,0,1,0,0,3.93h.52a2,2,0,0,0,0-3.93Z"/></svg>