<svg id="Layer_1" data-name="Layer 1" xmlns="http://www.w3.org/2000/svg" viewBox="0 0 164 149.99"><defs><style>.cls-1{fill:#5eae35;}.cls-2{fill:#fff;}.cls-3{fill:#599b32;}</style></defs><title>07-2tienda</title><g id="Page-1"><g id="_002---Shopping" data-name="002---Shopping"><path id="Shape" class="cls-1" d="M87.95,114.65a17.77,17.77,0,0,0,6.78,14A11.84,11.84,0,0,1,86,132.5H46.31a11.9,11.9,0,0,1-11.9-11.9V63.1H97.86V98.67a17.85,17.85,0,0,0-9.91,16Z"/><path id="Shape-2" data-name="Shape" class="cls-2" d="M97.86,57.15V63.1H34.41V57.15a2,2,0,0,1,2-2H95.88A2,2,0,0,1,97.86,57.15Z"/><path id="Shape-3" data-name="Shape" class="cls-2" d="M95.88,55.17H89.93a2,2,0,0,1,2,2V63.1h5.95V57.15A2,2,0,0,0,95.88,55.17Z"/><path id="Shape-4" data-name="Shape" class="cls-3" d="M76.05,47.24v7.93H61.14a14.58,14.58,0,0,0,3-8.92,8.31,8.31,0,0,0-.06-1h10A2,2,0,0,1,76,46.78v0A1.55,1.55,0,0,1,76.05,47.24Z"/><path id="Shape-5" data-name="Shape" class="cls-3" d="M64.15,46.25a14.58,14.58,0,0,1-3,8.92H56.22V47.24a2,2,0,0,1,2-2H64.1A8.31,8.31,0,0,1,64.15,46.25Z"/><path id="Shape-6" data-name="Shape" class="cls-1" d="M84,45.25v9.91H76.05V47.24A1.55,1.55,0,0,0,76,46.8v0a2,2,0,0,0-1.92-1.53H58.21a2,2,0,0,0-2,2v7.93H48.29V45.25a7.93,7.93,0,0,1,7.93-7.93H76.05A8,8,0,0,1,84,45.25Z"/><path id="Shape-7" data-name="Shape" class="cls-3" d="M97,48.64c-1.37,2.32-2.8,4.5-4.26,6.52H84V45.25a7.89,7.89,0,0,0-4-6.86c.63-1.09,1.31-2.14,2-3.17v0C90,23,99.21,15.45,103.53,18,108.25,20.77,105.32,34.49,97,48.64Z"/><path id="Shape-8" data-name="Shape" class="cls-1" d="M103.53,18a5.75,5.75,0,0,0-5.39.45C102,22,99,35.11,91,48.64c-1.37,2.32-2.8,4.5-4.26,6.52h5.95c1.47-2,2.89-4.2,4.26-6.52C105.32,34.49,108.25,20.77,103.53,18Z"/><path id="Shape-9" data-name="Shape" class="cls-1" d="M40.36,39.31a14.14,14.14,0,0,1-5.2,2.28c-7.89,1.51-10.67-8.23-10.67-8.23,7.28-2.42,11.58.34,13.84,2.86A11.47,11.47,0,0,1,40.36,39.31Z"/><path id="Shape-10" data-name="Shape" class="cls-1" d="M61.14,37.32H56.22a7.93,7.93,0,0,0-7.93,7.93v9.91H37.43a14.74,14.74,0,0,1-2.26-13.58,14.14,14.14,0,0,0,5.2-2.28,11.47,11.47,0,0,0-2-3.09,5.38,5.38,0,0,1,.48-.48,14.79,14.79,0,0,1,15.86-3.35v0a14.47,14.47,0,0,1,6.46,4.92Z"/><path id="Shape-11" data-name="Shape" class="cls-3" d="M54.68,32.41v0a14.87,14.87,0,0,0-8.37-.71,14.39,14.39,0,0,1,2.43.71v0a14.47,14.47,0,0,1,6.45,4.92H50.27a7.93,7.93,0,0,0-7.93,7.93v9.91h5.95V45.25a7.93,7.93,0,0,1,7.93-7.93h4.92A14.47,14.47,0,0,0,54.68,32.41Z"/><path id="Shape-12" data-name="Shape" class="cls-3" d="M82,35.2v0c-.67,1-1.35,2.08-2,3.17a7.91,7.91,0,0,0-4-1.07H61.14a14.47,14.47,0,0,0-6.46-4.92v0a10,10,0,0,1,9.48-7h7.93A9.91,9.91,0,0,1,82,35.2Z"/><path id="Shape-13" data-name="Shape" class="cls-1" d="M74.07,21.46v4H62.17v-4a4,4,0,0,1,4-4h4A4,4,0,0,1,74.07,21.46Z"/><path id="Shape-14" data-name="Shape" class="cls-3" d="M123.64,114.65a17.83,17.83,0,0,1-15.86,17.73,16.38,16.38,0,0,1-2,.12,17.85,17.85,0,0,1,0-35.69,16.38,16.38,0,0,1,2,.12h.08a12.13,12.13,0,0,0-2,4.92c5.39,1.84,8.68.67,10.69-1.43a17.79,17.79,0,0,1,6.66,10.27,18.55,18.55,0,0,1,.44,4Z"/><path id="Shape-15" data-name="Shape" class="cls-1" d="M99.9,101.84a11.91,11.91,0,0,0,7.65.49c-.55-.13-1.1-.29-1.7-.49a12.13,12.13,0,0,1,2-4.92h-.08a16.38,16.38,0,0,0-2-.12,17.87,17.87,0,0,0-4.11.48,12.27,12.27,0,0,0-1.77,4.55Z"/><path id="Shape-16" data-name="Shape" class="cls-1" d="M123.2,110.69a17.79,17.79,0,0,0-6.66-10.27,7.35,7.35,0,0,1-3.63,2.08,17.82,17.82,0,0,1,4.35,8.2,18.55,18.55,0,0,1,.44,4,17.82,17.82,0,0,1-14.95,17.58,18,18,0,0,0,3,.26,16.38,16.38,0,0,0,2-.12,17.83,17.83,0,0,0,15.86-17.73,18.55,18.55,0,0,0-.44-4Z"/><path id="Shape-17" data-name="Shape" class="cls-3" d="M139.5,110.69v17.85a4,4,0,0,1-4,4H107.78v-.12a17.83,17.83,0,0,0,15.86-17.73,18.55,18.55,0,0,0-.44-4Z"/><path id="Shape-18" data-name="Shape" class="cls-3" d="M133.55,110.69v17.85a4,4,0,0,1-4,4h5.95a4,4,0,0,0,4-4V110.69Z"/><path id="Shape-19" data-name="Shape" class="cls-3" d="M119.67,92a14,14,0,0,1-3.13,8.37c-2,2.1-5.29,3.27-10.69,1.43a12.13,12.13,0,0,1,2-4.92c1.86-2.66,5.33-5.29,11.82-4.88Z"/><path id="Shape-20" data-name="Shape" class="cls-1" d="M139.5,80.94v29.74H123.2a17.79,17.79,0,0,0-6.66-10.27A14,14,0,0,0,119.67,92c-6.48-.42-10,2.22-11.82,4.88h-.08v-16Z"/><path id="Rectangle-path" class="cls-1" d="M133.55,80.94h5.95v29.74h-5.95Z"/><path id="Shape-21" data-name="Shape" class="cls-1" d="M139.5,67.06V80.94H107.78V67.06c0-5,4.1-9.26,9.91-11a20.71,20.71,0,0,1,11.9,0C135.4,57.81,139.5,62.07,139.5,67.06Z"/><path id="Shape-22" data-name="Shape" class="cls-3" d="M129.59,56a20,20,0,0,0-5.95-.87,21.15,21.15,0,0,0-3,.21,18.74,18.74,0,0,1,3,.66c5.81,1.76,9.91,6,9.91,11V80.94h5.95V67.06C139.5,62.07,135.4,57.81,129.59,56Z"/><path id="Shape-23" data-name="Shape" class="cls-2" d="M129.59,47.24V56a20.71,20.71,0,0,0-11.9,0v-8.8Z"/><path id="Shape-24" data-name="Shape" class="cls-1" d="M131.57,41.29v4a2,2,0,0,1-2,2h-11.9a2,2,0,0,1-2-2v-4a4,4,0,0,1,4-4h7.93A4,4,0,0,1,131.57,41.29Z"/><path id="Shape-25" data-name="Shape" class="cls-3" d="M35.17,41.59a14.72,14.72,0,0,0,2.26,13.58h-1a2,2,0,0,0-2,2V120.6a11.9,11.9,0,0,0,11.9,11.9h5.95a11.9,11.9,0,0,1-11.9-11.9V57.15a2,2,0,0,1,2-2h1a14.72,14.72,0,0,1-2.26-13.58c-7.89,1.51-10.67-8.23-10.67-8.23a20,20,0,0,1,2.22-.59,14.57,14.57,0,0,0-8.17.59S27.27,43.09,35.17,41.59Z"/><path id="Rectangle-path-2" data-name="Rectangle-path" class="cls-2" d="M32.43,104.74h4V120.6h-4Z"/><path id="Shape-26" data-name="Shape" class="cls-3" d="M34.45,114.65a2,2,0,1,1,0-4h0a2,2,0,0,1,0,4Z"/><path id="Shape-27" data-name="Shape" class="cls-2" d="M68.12,124.57v-7.93a2,2,0,0,0-4,0v7.93a2,2,0,1,0,4,0Z"/><path id="Shape-28" data-name="Shape" class="cls-2" d="M76.05,124.57v-7.93a2,2,0,0,0-4,0v7.93a2,2,0,1,0,4,0Z"/><path id="Shape-29" data-name="Shape" class="cls-2" d="M60.19,124.57v-7.93a2,2,0,0,0-4,0v7.93a2,2,0,1,0,4,0Z"/></g></g></svg>