<svg id="Layer_1" data-name="Layer 1" xmlns="http://www.w3.org/2000/svg" viewBox="0 0 164 149.99"><defs><style>.cls-1{fill:#5eae35;}.cls-2{fill:#599b32;}.cls-3{fill:#fff;}.cls-4{fill:#e2e2e2;}</style></defs><title>07-3restaurante</title><g id="flat"><path class="cls-1" d="M35.83,27.87h92.34v100a3.85,3.85,0,0,1-3.85,3.85H39.68a3.85,3.85,0,0,1-3.85-3.85Z"/><path class="cls-2" d="M38.72,114.43q-1.45,0-2.89,0V127.9a3.85,3.85,0,0,0,3.85,3.85h84.64a3.85,3.85,0,0,0,3.85-3.85v-76A95.26,95.26,0,0,1,38.72,114.43Z"/><path class="cls-2" d="M105.08,29.79h-1.92a9.62,9.62,0,0,1-7.69-3.85L94.31,24.4a5.77,5.77,0,0,0-4.62-2.31H74.31a5.77,5.77,0,0,0-4.62,2.31l-1.15,1.54a9.62,9.62,0,0,1-7.69,3.85H58.92V27.87a1.92,1.92,0,0,1,1.92-1.92,5.77,5.77,0,0,0,4.62-2.31l1.15-1.54a9.62,9.62,0,0,1,7.69-3.85H89.69a9.62,9.62,0,0,1,7.69,3.85l1.15,1.54a5.77,5.77,0,0,0,4.62,2.31,1.92,1.92,0,0,1,1.92,1.92Z"/><path class="cls-2" d="M35.83,27.87V39.41a7.69,7.69,0,0,0,7.69,7.69h76.95a7.69,7.69,0,0,0,7.69-7.69V27.87Z"/><path class="cls-3" d="M35.83,35.56h92.34v3.85H35.83Z"/><circle class="cls-3" cx="82" cy="60.57" r="3.85"/><path class="cls-3" d="M58.92,108.66H76.23l8.66-5.77a3.47,3.47,0,0,1,3.85,5.77l-2.89,1.92H99.31l4.58-4.58a4.08,4.08,0,0,1,7,2.89h0a4.08,4.08,0,0,1-1.2,2.89l-6.5,6.5H58.92Z"/><path class="cls-4" d="M51.22,106.74H66.61V120.2H51.22Z"/><path class="cls-2" d="M82,62.49a25,25,0,0,0-25,25v1.92h50V87.5A25,25,0,0,0,82,62.49Z"/><path class="cls-3" d="M66.61,110.28a94.67,94.67,0,0,1-15.39,3.33v6.59H66.61Z"/><path class="cls-3" d="M103,89.42h4V87.5q0-.94-.07-1.87Q105,87.58,103,89.42Z"/><path class="cls-3" d="M55.07,87.5h53.86a3.85,3.85,0,0,1,3.85,3.85h0a3.85,3.85,0,0,1-3.85,3.85H55.07a3.85,3.85,0,0,1-3.85-3.85h0A3.85,3.85,0,0,1,55.07,87.5Z"/><path class="cls-3" d="M108.93,87.5h-3.86a95.77,95.77,0,0,1-9,7.69h12.82a3.85,3.85,0,0,0,0-7.69Z"/></g></svg>