<svg id="Layer_1" data-name="Layer 1" xmlns="http://www.w3.org/2000/svg" viewBox="0 0 164 149.99"><defs><style>.cls-1{fill:#5eae35;}.cls-2{fill:#599b32;}.cls-3{fill:#fff;}</style></defs><title>07-4frutas</title><path class="cls-1" d="M60.31,53.17c-8.72,0-28-11.12-31-13.34l-4-2.92,4-2.92c3.05-2.23,22.32-13.35,31-13.35,10,0,18.07,7.3,18.07,16.26S70.28,53.17,60.31,53.17Z"/><path class="cls-2" d="M80.19,111H62.12a37.95,37.95,0,1,1,0-75.9H80.19a37.95,37.95,0,0,1,0,75.9Z"/><path class="cls-1" d="M103.69,43.3S91.06,52.24,86.88,57.56l-19,24.18c-13.35,17-41.19,9.68-43.5-11.84,0-.16,0-.31,0-.47-.12,1.19-.18,2.39-.18,3.61A38,38,0,0,0,47.32,108h0l.06,0,.15.07h0A37.7,37.7,0,0,0,62.12,111H79c20.77,0,39.08-17,39.19-37.74A37.86,37.86,0,0,0,103.69,43.3Z"/><path class="cls-1" d="M74.77,49.56H67.54V43.77A26.79,26.79,0,0,1,90.18,17.34a3.62,3.62,0,0,1,1,7.16A19.55,19.55,0,0,0,74.77,43.78Z"/><path class="cls-3" d="M79.11,53.17H63.21a3.61,3.61,0,0,1,0-7.23h15.9a3.61,3.61,0,0,1,0,7.23Z"/><path class="cls-1" d="M136.21,71.54H124.45V64.31h11.76a3.61,3.61,0,1,1,0,7.23Z"/><path class="cls-1" d="M121.9,65.37l-5.11-5.11,12.78-12.78a3.61,3.61,0,0,1,5.11,5.11Z"/><path class="cls-1" d="M118.14,60.4h-7.23V42.33a3.61,3.61,0,1,1,7.23,0Z"/><path class="cls-2" d="M61.17,132.69a11.7,11.7,0,0,1-9.14-19L92.57,62a19.63,19.63,0,1,1,27.57,27.57L68.44,130.15A11.6,11.6,0,0,1,61.17,132.69Z"/><path class="cls-1" d="M120.13,82.36,68.44,122.92a11.6,11.6,0,0,1-18.36-5.59,11.68,11.68,0,0,0,18.36,12.82l51.69-40.56a19.45,19.45,0,0,0,7.16-19A19.64,19.64,0,0,1,120.13,82.36Z"/><path class="cls-3" d="M38.63,53.17h7.23V60.4H38.63Z"/><path class="cls-3" d="M31.4,67.63h7.23v7.23H31.4Z"/><path class="cls-3" d="M107.3,58.9,112.41,64l-5.11,5.11L102.19,64Z"/><path class="cls-1" d="M81,101.15a3.61,3.61,0,0,1-5.1,0L68,93.29l4.48-5.71L81,96.05A3.61,3.61,0,0,1,81,101.15Z"/><path class="cls-1" d="M104,83.26l0,0a3.6,3.6,0,0,1-5.09,0L86,70.38l4.48-5.75L104,78.16A3.6,3.6,0,0,1,104,83.26Z"/><path class="cls-1" d="M106.07,100.66l-5.71,4.48L91.23,96a3.6,3.6,0,1,1,5.1-5.1Z"/><path class="cls-1" d="M83.16,118.62l-5.75,4.48-6.63-6.63a3.61,3.61,0,0,1,0-5.1h0a3.6,3.6,0,0,1,5.09,0Z"/></svg>