<svg id="Layer_1" data-name="Layer 1" xmlns="http://www.w3.org/2000/svg" viewBox="0 0 164 149.99"><defs><style>.cls-1{fill:#599b32;}.cls-2{fill:#5eae35;}.cls-3{fill:#fff;stroke:#599b32;stroke-miterlimit:10;}</style></defs><title>07-5panaderia</title><path class="cls-1" d="M80.61,113.78h0a9,9,0,0,1-8.7-6.7L56.65,49.42A11.23,11.23,0,0,1,67.71,36.21H93.52a11.23,11.23,0,0,1,11.06,13.21L89.31,107.08A9,9,0,0,1,80.61,113.78Z"/><path class="cls-2" d="M132.91,51.75c-9.19-6.67-21.79-10.43-29.39-9.37a11.14,11.14,0,0,1,1,7L89.31,107.08a8.92,8.92,0,0,1-1.1,2.49A9.72,9.72,0,0,0,92.5,111h0c13.2,4.26,33.87-22.4,44.46-37.72C142.38,65.39,140.64,57.36,132.91,51.75Z"/><path class="cls-2" d="M71.92,107.08,56.65,49.42a11.14,11.14,0,0,1,1.07-7.1c-7.63-.88-20,2.87-29,9.43-7.73,5.61-9.47,13.65-4,21.51,10.58,15.33,31.26,42,44.46,37.72h0a9.76,9.76,0,0,0,4-1.23A9,9,0,0,1,71.92,107.08Z"/><path class="cls-1" d="M24.67,73.25a18.94,18.94,0,0,1-2.34-4.54,73.4,73.4,0,0,0-17,26.11c-3.93,10.54,5,21.42,15.12,18.46l30.75-9C41.29,96.09,31.11,82.58,24.67,73.25Z"/><path class="cls-1" d="M158.62,94.83a73.79,73.79,0,0,0-18.83-28A17.62,17.62,0,0,1,137,73.26c-6.31,9.13-16.2,22.28-25.95,30.52l32.5,9.51C153.61,116.24,162.55,105.37,158.62,94.83Z"/><path class="cls-3" d="M67.71,36.21c-.12,0-.22,0-.34,0l4.54,17.16a9,9,0,0,0,17.4,0l4.54-17.16c-.12,0-.22,0-.34,0Z"/></svg>