<svg id="Layer_1" data-name="Layer 1" xmlns="http://www.w3.org/2000/svg" viewBox="0 0 164 149.99"><defs><style>.cls-1,.cls-4,.cls-5{fill:#fff;}.cls-1,.cls-5{stroke:#599b32;stroke-miterlimit:10;}.cls-1{stroke-width:1.35px;}.cls-2{fill:#599b32;}.cls-3{fill:#5eae35;}</style></defs><title>07-6mascota</title><path class="cls-1" d="M127.87,21.83H107c-7.56,3-9.23-2.08-25-2.08s-17.46,5.08-25,2.08H36.13L33.35,74.21C35.09,94.8,47.86,106,57.94,110.09h48.13c10.08-4.08,22.85-15.29,24.58-35.88Z"/><path class="cls-2" d="M107,21.83c23.47,7,10.7,43.26,25.81,58.92A4.15,4.15,0,0,0,139.74,79a61.69,61.69,0,0,0,2.2-19.13c-.26-12.25,4.69-13,4.69-13s-6.25-29.19-25-29.19C115.36,17.66,107,21.83,107,21.83Z"/><path class="cls-2" d="M60.11,76h0a7.32,7.32,0,0,1-7.3-7.3V64.57a7.32,7.32,0,0,1,7.3-7.3h0a7.32,7.32,0,0,1,7.3,7.3v4.17A7.32,7.32,0,0,1,60.11,76Z"/><path class="cls-3" d="M60.11,57.28a7.17,7.17,0,0,0-1,.11V67.7a4.17,4.17,0,0,0,8.34,0V64.57A7.32,7.32,0,0,0,60.11,57.28Z"/><circle class="cls-4" cx="60.11" cy="62.49" r="3.13"/><path class="cls-2" d="M103.89,76h0a7.32,7.32,0,0,1-7.3-7.3V64.57a7.32,7.32,0,0,1,7.3-7.3h0a7.32,7.32,0,0,1,7.3,7.3v4.17A7.32,7.32,0,0,1,103.89,76Z"/><path class="cls-3" d="M103.89,57.28a7.17,7.17,0,0,0-1,.11V67.7a4.17,4.17,0,1,0,8.34,0V64.57A7.32,7.32,0,0,0,103.89,57.28Z"/><circle class="cls-4" cx="103.89" cy="62.49" r="3.13"/><path class="cls-3" d="M132.83,80.76A4.15,4.15,0,0,0,139.74,79a51.26,51.26,0,0,0,1.79-9.17c-4.1-2-7.6-8.56-9.75-19.61C127.87,30.17,122.39,19,107,21.83,130.49,28.86,117.71,65.09,132.83,80.76Z"/><path class="cls-2" d="M57,21.83c-23.47,7-10.69,43.26-25.81,58.92A4.15,4.15,0,0,1,24.26,79a61.69,61.69,0,0,1-2.2-19.13c.26-12.25-4.69-13-4.69-13s6.25-29.19,25-29.19C48.64,17.66,57,21.83,57,21.83Z"/><path class="cls-3" d="M56.28,21.5c-2.12-1-8.71-3.84-13.9-3.84-18.76,0-25,29.19-25,29.19s5,.78,4.69,13c0,.16,0,.31,0,.47C34.06,14.84,52.49,19.9,56.28,21.5Z"/><ellipse class="cls-2" cx="82" cy="111.48" rx="22.93" ry="16.68"/><path class="cls-5" d="M71.58,111.48v10.42a10.42,10.42,0,1,0,20.85,0V111.48Z"/><path class="cls-1" d="M95.55,92.72H68.45c-8.64,0-15.64,5.13-15.64,11.47s7,11.47,15.64,11.47a18.73,18.73,0,0,0,11.11-3.41,4.14,4.14,0,0,1,4.89,0,18.73,18.73,0,0,0,11.11,3.41c8.64,0,15.64-5.13,15.64-11.47S104.19,92.72,95.55,92.72Z"/><path class="cls-2" d="M82,84.38c6.91,0,12.51,3.73,12.51,8.34,0,4.44-5.26,6.78-9.05,8.51a8.33,8.33,0,0,1-6.92,0c-3.79-1.73-9.05-4.07-9.05-8.51C69.49,88.11,75.09,84.38,82,84.38Z"/><path class="cls-2" d="M75.68,90.44C75.39,87.81,77.24,85,77.24,85c-4.55,1.25-7.75,4.23-7.75,7.71,0,4.44,5.26,6.78,9.05,8.51a8.33,8.33,0,0,0,6.92,0c.82-.37,1.7-.77,2.58-1.22C82.91,99.1,76.27,95.71,75.68,90.44Z"/></svg>