<svg id="Layer_1" data-name="Layer 1" xmlns="http://www.w3.org/2000/svg" viewBox="0 0 164 149.99"><defs><style>.cls-1{fill:#5eae35;}.cls-2{fill:#599b32;}.cls-3{fill:#fff;}</style></defs><title>07-7medico</title><path class="cls-1" d="M98.24,20.82,85.61,89.37l9,1.8C113.72,77.19,121.91,20.82,98.24,20.82Z"/><path class="cls-2" d="M98.24,20.82c-3.16-1.92-19.82-6.78-32.47,0C50.21,29.16,36.6,59,58.55,89.37c0,0,16.24-1.8,16.24-1.8Z"/><path class="cls-3" d="M94.73,81h-.1V76.74H69.37v4.21c0,4.12,0,8.61-3.61,11.32v40.4H98.24V92.2C94.74,89.49,94.73,85,94.73,81Z"/><path class="cls-1" d="M82,114.62a41.4,41.4,0,0,1-10.82-1.41v19.45H96.43V112A39.34,39.34,0,0,1,82,114.62Z"/><path class="cls-3" d="M96.43,100.19a10,10,0,0,0,1.8.32V92.2C94.74,89.49,94.73,85,94.73,81V76.64l-19.94.1-5.41,1.8C73,82.6,84,96.81,96.43,100.19Z"/><path class="cls-3" d="M107.26,53.29c0,14.45-14.37,32.47-25.26,32.47s-25.26-18-25.26-32.47S68.05,33.45,82,33.45,107.26,38.84,107.26,53.29Z"/><path class="cls-2" d="M85.61,24.43c-1,0-4.3,1.14-7,2.14l-.22-.33-1,.8c-1.5.57-2.59,1-2.59,1l.42.7c-6.85,5.39-22.47,17.74-23.87,19.14-1.8,1.8,10.82,47.83,10.82,21.65,0-21.87,12.15-26.2,23.45-28.86,5.11-1.2,6.61-4.21,7.22-7.22S87.41,24.43,85.61,24.43Z"/><path class="cls-2" d="M91,35.25c3.31,11.88,9.92,17.25,16.12,18.83,3.4.86,1.92-9.81,1.92-9.81s-4.81-12.33-5.41-12.63-5.41-10.82-5.41-10.82l-10.82,9Z"/><path class="cls-2" d="M67.75,90.11c-1.69,2.75-5.13,4.67-12.2,4.67h-.6A19.84,19.84,0,0,0,35.1,114.62v12.63a5.41,5.41,0,0,0,5.41,5.41h37Z"/><path class="cls-2" d="M96.25,90.11c1.69,2.75,5.13,4.67,12.2,4.67h.6a19.84,19.84,0,0,1,19.84,19.84v12.63a5.41,5.41,0,0,1-5.41,5.41h-37Z"/><circle class="cls-3" cx="54.94" cy="123.64" r="5.41"/><path class="cls-3" d="M115.84,129.82l-2.23-1.53c2-2.88,3.12-7.21,3.12-11.86,0-8.07-3.51-14.88-7.67-14.88s-7.67,6.82-7.67,14.88c0,4.65,1.14,9,3.12,11.86l-2.23,1.53c-2.28-3.32-3.59-8.21-3.59-13.39,0-9.86,4.56-17.59,10.37-17.59s10.37,7.73,10.37,17.59C119.43,121.62,118.12,126.5,115.84,129.82Z"/><circle class="cls-1" cx="103.65" cy="129.05" r="1.8"/><circle class="cls-1" cx="114.47" cy="129.05" r="1.8"/><path class="cls-3" d="M54.94,121.39A1.35,1.35,0,0,1,53.59,120c0-23.38,11-29.78,11.52-30a1.35,1.35,0,0,1,1.32,2.36c-.13.08-10.13,6.08-10.13,27.68A1.35,1.35,0,0,1,54.94,121.39Z"/><circle class="cls-1" cx="54.94" cy="123.64" r="2.86"/><path class="cls-3" d="M109.06,101.55a1.35,1.35,0,0,1-1.28-.9,10.35,10.35,0,0,0-3.11-4.75,1.35,1.35,0,0,1,1.55-2.22,12.8,12.8,0,0,1,4.11,6.07,1.35,1.35,0,0,1-1.28,1.8Z"/><path class="cls-3" d="M104.57,53.45c3-.68,4.89.77,4.89,3.61,0,3.76-4,13-8.14,7.22S104.57,53.45,104.57,53.45Z"/></svg>