<svg id="Layer_1" data-name="Layer 1" xmlns="http://www.w3.org/2000/svg" viewBox="0 0 164 149.99"><defs><style>.cls-1{fill:#599b32;}.cls-2{fill:#5eae35;}.cls-3{fill:#fff;}</style></defs><title>07-8farmacias</title><g id="Layer_2" data-name="Layer 2"><path class="cls-1" d="M124.73,18.56H38.22A14.19,14.19,0,0,0,24,32.75v85.63a14.19,14.19,0,0,0,14.19,14.19h71.71v-14.8a14.19,14.19,0,0,1,14.19-14.19l14.8-.72V32.75A14.19,14.19,0,0,0,124.73,18.56ZM110.94,78.07a7.51,7.51,0,0,1-7.51,7.51H91.5V97.51A7.51,7.51,0,0,1,84,105H79a7.51,7.51,0,0,1-7.51-7.51V85.58H59.52A7.51,7.51,0,0,1,52,78.07V73a7.51,7.51,0,0,1,7.51-7.51H71.45V53.61A7.51,7.51,0,0,1,79,46.09h5a7.51,7.51,0,0,1,7.51,7.51V65.53h11.93A7.51,7.51,0,0,1,110.94,73Z"/><path class="cls-2" d="M109.9,117.39v15.17l29-29.71H124.44A14.54,14.54,0,0,0,109.9,117.39Z"/><path class="cls-3" d="M103.43,65.53H91.5V53.61A7.51,7.51,0,0,0,84,46.09H79a7.51,7.51,0,0,0-7.51,7.51V65.53H59.52A7.51,7.51,0,0,0,52,73v5a7.51,7.51,0,0,0,7.51,7.51H71.45V97.51A7.51,7.51,0,0,0,79,105h5a7.51,7.51,0,0,0,7.51-7.51V85.58h11.93a7.51,7.51,0,0,0,7.51-7.51V73A7.51,7.51,0,0,0,103.43,65.53Z"/></g></svg>