<svg id="Layer_1" data-name="Layer 1" xmlns="http://www.w3.org/2000/svg" viewBox="0 0 164 149.99"><defs><style>.cls-1{fill:#f2d0cf;}.cls-2{fill:#3b64c4;}.cls-3{fill:#599b32;}.cls-4{fill:#5eae35;}.cls-5{fill:#fff;}</style></defs><title>07-9otros</title><path class="cls-1" d="M106,59.95l-9.36-2.51,3.57-13.33,9.36,2.51A6.9,6.9,0,0,1,106,59.95Z"/><path class="cls-2" d="M107.76,61.46a8.17,8.17,0,0,1-2.11-.28l-9.36-2.51a1.28,1.28,0,0,1-.9-1.56L99,43.77a1.27,1.27,0,0,1,1.56-.9l9.36,2.51a8.18,8.18,0,0,1-2.12,16.08Zm-9.58-4.92,8.13,2.18a5.62,5.62,0,1,0,2.91-10.86l-8.13-2.18Z"/><path class="cls-3" d="M20.48,52.48,24.9,106a11.71,11.71,0,0,0,11.67,10.75h90.87A11.71,11.71,0,0,0,139.1,106l4.41-53.51h-123Z"/><path class="cls-4" d="M150.24,49.41l1-12.55a3.35,3.35,0,0,0-3.33-3.62H16.06a3.35,3.35,0,0,0-3.33,3.62l1,12.55a3.35,3.35,0,0,0,3.33,3.07H146.91A3.34,3.34,0,0,0,150.24,49.41Z"/><path class="cls-5" d="M87.71,52.28H76.29a4.39,4.39,0,0,1-4.39-4.39V37.64a4.39,4.39,0,0,1,4.39-4.39H87.71a4.39,4.39,0,0,1,4.39,4.39V47.89A4.39,4.39,0,0,1,87.71,52.28Z"/><path class="cls-5" d="M82,105.74a6.27,6.27,0,0,1-6.27-6.27V67.12a6.27,6.27,0,1,1,12.54,0V99.46A6.27,6.27,0,0,1,82,105.74Z"/><path class="cls-5" d="M115.46,105.74a6.27,6.27,0,0,1-6.27-6.27V67.12a6.27,6.27,0,1,1,12.54,0V99.46a6.27,6.27,0,0,1-6.27,6.27Z"/><path class="cls-5" d="M48.55,105.74a6.27,6.27,0,0,1-6.27-6.27V67.12a6.27,6.27,0,1,1,12.54,0V99.46A6.27,6.27,0,0,1,48.55,105.74Z"/><path class="cls-3" d="M92,73.3,77.45,47.07a5.36,5.36,0,1,1,9.37-5.21L99.67,65a3.35,3.35,0,0,0,2.92,1.72H144a5,5,0,0,1,0,10H97.87A6.69,6.69,0,0,1,92,73.3Z"/><path class="cls-4" d="M144,78H97.87a8,8,0,0,1-7-4.1L76.34,47.69a6.64,6.64,0,1,1,11.6-6.45l12.85,23.12a2.07,2.07,0,0,0,1.81,1.06H144A6.29,6.29,0,0,1,144,78ZM93.14,72.68a5.42,5.42,0,0,0,4.73,2.79H144A3.74,3.74,0,1,0,144,68H102.6a4.62,4.62,0,0,1-4-2.38L85.71,42.48a4.09,4.09,0,1,0-7.14,4Z"/></svg>