<svg id="Layer_1" data-name="Layer 1" xmlns="http://www.w3.org/2000/svg" viewBox="0 0 374.62 257.11"><defs><style>.cls-1{fill:#04876e;}.cls-2{fill:#009b83;}.cls-3{fill:#04aa8a;}.cls-4{fill:#ef7850;}.cls-5{fill:#f9eeeb;}.cls-6{fill:#ead7d0;}.cls-7{fill:#fff;}.cls-8{fill:#d09288;}.cls-9{fill:#112d87;}.cls-10{fill:#ebebeb;}.cls-11{fill:#1d47ef;}.cls-12{fill:#133cc8;}</style></defs><title>09-1usuarios-seguridad</title><circle class="cls-1" cx="187.31" cy="137.52" r="108.74"/><circle class="cls-2" cx="187.31" cy="137.52" r="92.67"/><circle class="cls-3" cx="187.31" cy="137.52" r="76.59"/><path class="cls-4" d="M235,38c-8.37-16.15-25.81-30-36.37-21.33C179.94.37,148,21.83,139.61,38s-15.87,67-14.94,112.13,54.09,26,62.64,26,61.72,19.07,62.64-26S243.38,54.14,235,38Z"/><path class="cls-5" d="M171.83,112.78l-1.47,45a16.83,16.83,0,0,0,16.83,17.25h0A16.83,16.83,0,0,0,204,157.82l-1.47-45Z"/><path class="cls-6" d="M171.47,123.74l-.83,25.42c12-3.29,23-3.68,32.76-10.15l-.48-14.81c-10-.16-20.13-.34-30-.45Z"/><path class="cls-7" d="M153.24,114.28l0-1.2c-3.26-.11-9.41-1.69-11.67-3.31-10.59-7.56-16.47-18.59-15.75-29.51l-1.26-.07c-.75,11.32,5.33,22.74,16.25,30.55C143.33,112.49,149.74,114.16,153.24,114.28Z"/><path class="cls-7" d="M221.14,114.28l0-1.2c3.26-.11,9.41-1.69,11.67-3.31,10.59-7.56,16.47-18.59,15.75-29.51l1.26-.07c.75,11.32-5.33,22.74-16.25,30.55C231.05,112.49,224.64,114.16,221.14,114.28Z"/><ellipse class="cls-5" cx="187.19" cy="79.64" rx="50.59" ry="56.43"/><path class="cls-5" d="M239.46,91.08a10.38,10.38,0,1,0,0-20.76H229.11V91.08Z"/><path class="cls-6" d="M244.92,82.71h0a.47.47,0,0,1-.44-.5,7,7,0,0,0-4.59-7,.48.48,0,0,1,.32-.89,7.94,7.94,0,0,1,5.21,8A.47.47,0,0,1,244.92,82.71Z"/><path class="cls-5" d="M134.91,91.08a10.38,10.38,0,0,1,0-20.76h10.35V91.08Z"/><path class="cls-6" d="M129.45,82.71a.48.48,0,0,1-.47-.44,7.94,7.94,0,0,1,5.21-8,.48.48,0,1,1,.32.89,7,7,0,0,0-4.59,7,.47.47,0,0,1-.44.5Z"/><path class="cls-8" d="M187.13,88.7a4,4,0,0,1-1-.13,3.51,3.51,0,0,1-2.23-1.69.63.63,0,0,1,1.12-.6,2.24,2.24,0,0,0,1.43,1.06,2.43,2.43,0,0,0,1.91-.26,2.8,2.8,0,0,0,.86-3.51,3.23,3.23,0,0,0-3.47-1.52.63.63,0,0,1-.28-1.24A4.48,4.48,0,0,1,190.35,83a4.07,4.07,0,0,1-1.3,5.16A3.55,3.55,0,0,1,187.13,88.7Z"/><circle class="cls-9" cx="168.56" cy="71.99" r="3.4"/><circle class="cls-9" cx="205.81" cy="71.99" r="3.4"/><ellipse class="cls-6" cx="215.09" cy="86.28" rx="8.02" ry="2.24"/><ellipse class="cls-6" cx="159.28" cy="86.28" rx="8.02" ry="2.24"/><path class="cls-7" d="M226.51,99.31l1.26-.09c-.6-8.82,4-23.93,11.29-28.91h-2.18C230,75.67,225.92,90.56,226.51,99.31Z"/><path class="cls-7" d="M147.87,99.31l-1.26-.09c.6-8.82-4-23.93-11.29-28.91h2.18C144.42,75.67,148.46,90.56,147.87,99.31Z"/><path class="cls-7" d="M226.12,95.91c-7.82-6.41-17.45-11.13-27.05-14.29-16.33-5.37-22.1-.83-32.44,3a133.89,133.89,0,0,0-22,11c-3.34,2-4.53,7.33-4,13,.43,5,.59,8.34,5,12.93,10.91,9.63,19.94,14.09,33.56,15.76a64.13,64.13,0,0,0,28.21-2.84,62.83,62.83,0,0,0,16.95-8.67c.47-.38,2-1.52,2.45-1.93,2.2-2.54,3.34-6.29,3.46-13.15C230.42,102.83,228.23,97.83,226.12,95.91Z"/><path class="cls-10" d="M226.12,106.35q-2.22-1.68-4.54-3.21c-1.56-1-3.13-2-4.75-2.86a88.18,88.18,0,0,0-10-4.8,101.69,101.69,0,0,0-10.43-3.66,37.89,37.89,0,0,0-10.8-1.61A29.79,29.79,0,0,0,175,92.34c-1.73.63-3.44,1.34-5.17,2s-3.49,1.3-5.21,2a110,110,0,0,0-10.12,4.52c-3.33,1.63-6.57,3.42-9.82,5.2,3.12-2,6.31-3.91,9.55-5.72a108.75,108.75,0,0,1,10-4.85c1.73-.73,3.46-1.36,5.16-2.06s3.42-1.43,5.17-2.08a30.84,30.84,0,0,1,11-2.3,39,39,0,0,1,11.11,1.76l2.68.83c.88.3,1.76.6,2.64.93,1.75.63,3.48,1.34,5.18,2.1a87.24,87.24,0,0,1,9.91,5.14A67.6,67.6,0,0,1,226.12,106.35Z"/><path class="cls-10" d="M226.12,112.14c-3.3-1-6.64-1.93-10-2.66s-6.75-1.42-10.15-2c-6.81-1.08-13.65-2.12-20.51-2a65,65,0,0,0-10.24.84c-3.39.53-6.81,1.18-10.23,1.66s-6.8,1.16-10.18,1.86S148,111.27,144.66,112c3.31-1,6.66-1.88,10-2.74s6.75-1.56,10.16-2.19l5.1-.92c1.7-.31,3.4-.63,5.11-.91a65.69,65.69,0,0,1,10.4-1,84,84,0,0,1,10.41.69c3.44.44,6.87,1,10.27,1.63s6.79,1.42,10.13,2.31A96.32,96.32,0,0,1,226.12,112.14Z"/><path class="cls-10" d="M226.12,116.39c-3.3.92-6.66,1.63-10,2.28s-6.76,1.14-10.16,1.6-6.81.81-10.23,1.11-6.86.47-10.3.47c-6.91,0-13.72-1.11-20.5-1.91q-5.1-.67-10.17-1.53c-3.37-.61-6.74-1.23-10.09-1.95,3.4.45,6.78,1,10.18,1.37s6.78.86,10.19,1.2,6.82.74,10.21,1.08a96.45,96.45,0,0,0,10.19.55,181.51,181.51,0,0,0,20.42-1.3q5.1-.53,10.17-1.27C219.39,117.64,222.76,117.05,226.12,116.39Z"/><path class="cls-6" d="M211.48,81.54c-6.49-.6-10.19-1.49-16.07-7.07l.41-.43c5.74,5.45,9.37,6.32,15.72,6.91Z"/><path class="cls-6" d="M162.9,81.54l-.05-.59c6.35-.59,10-1.46,15.72-6.91l.41.43C173.1,80.05,169.39,80.94,162.9,81.54Z"/><path class="cls-4" d="M138,66.62s65.18-9.87,71.25-43.41l-33.8-3.9L160.55,30.64,148.16,41.88,136.6,54.05Z"/><path class="cls-4" d="M236.32,66.18s-44.91-9.43-49.14-43l15.22-1,18.67,8.43,8.63,11.24,8.06,12.17Z"/><path class="cls-11" d="M203.93,155l-.06-3.76c-18.2,6.55-31.81.74-33.37,0l-.06,3.84c-20,8.37-49.24,28.75-53,65.74a108.72,108.72,0,0,0,139.65,0C253.4,183.73,224,163.34,203.93,155Z"/><path class="cls-12" d="M224.25,239.81l.17-40.34a.75.75,0,0,0-.75-.75h0a.75.75,0,0,0-.75.75l-.17,40.87Z"/><path class="cls-12" d="M151.7,199.46a.75.75,0,0,0-.75-.75h0a.75.75,0,0,0-.75.75l.17,40.34,1.51.52Z"/></svg>