<svg xmlns="http://www.w3.org/2000/svg" viewBox="0 0 374.62 257.11"><defs><style>.cls-1{isolation:isolate;}.cls-2{fill:#04876e;}.cls-3{fill:#009b83;}.cls-4{fill:#434343;}.cls-5{fill:#ef7850;}.cls-6{fill:#f5f5f5;}.cls-7{fill:#3b2824;}.cls-8{fill:#90c9c4;}.cls-9{fill:#badedb;}.cls-10,.cls-11,.cls-24{fill:#212121;}.cls-10{opacity:0.2;}.cls-10,.cls-11{mix-blend-mode:multiply;}.cls-11{opacity:0.4;}.cls-12{fill:#e0e0e0;}.cls-13{fill:#bdbdbd;}.cls-14{fill:#ee5934;}.cls-15{fill:#eee;}.cls-16{fill:#c43e37;}.cls-17{fill:#d5493e;}.cls-18,.cls-21{fill:#fafbfb;}.cls-19{fill:#457a3b;}.cls-20{fill:#305c28;}.cls-21{font-size:31.01px;font-family:Roboto-Bold, Roboto;font-weight:700;}.cls-22{letter-spacing:0.4em;}.cls-23{letter-spacing:0.39em;}</style></defs><title>09-2local-seguridad</title><g class="cls-1"><g id="Layer_1" data-name="Layer 1"><path class="cls-2" d="M290.58,175a24.35,24.35,0,0,0-24.35,24.35v31.9h48.7v-31.9A24.35,24.35,0,0,0,290.58,175Z"/><circle class="cls-3" cx="320.19" cy="211.19" r="17.01"/><circle class="cls-3" cx="46.8" cy="216.88" r="11.31"/><circle class="cls-2" cx="71.88" cy="204.82" r="23.37"/><rect class="cls-4" x="27.53" y="221.93" width="319.56" height="13"/><rect class="cls-5" x="81.08" y="88.58" width="212.46" height="133.36"/><path class="cls-6" d="M294.14,213.87H273.88v8.07h22.59v-5.74A2.33,2.33,0,0,0,294.14,213.87Z"/><rect class="cls-7" x="214.19" y="125.48" width="59.69" height="96.45"/><rect class="cls-8" x="217.73" y="129.03" width="52.6" height="89.36"/><polygon class="cls-9" points="270.33 151.14 270.33 156.62 242.74 129.03 248.22 129.03 270.33 151.14"/><polygon class="cls-9" points="270.33 205.01 270.33 210.49 217.73 157.89 217.73 152.41 270.33 205.01"/><polygon class="cls-9" points="270.33 159.53 270.33 170.5 228.86 129.03 239.82 129.03 270.33 159.53"/><rect class="cls-10" x="217.73" y="129.03" width="52.6" height="1.9"/><polygon class="cls-11" points="214.19 200.44 214.19 221.93 235.68 221.93 214.19 200.44"/><circle class="cls-12" cx="224.1" cy="167.45" r="2.27"/><circle class="cls-12" cx="224.1" cy="183.69" r="2.27"/><path class="cls-6" d="M224.1,165.68a1.3,1.3,0,0,0-1.3,1.3v17.19a1.3,1.3,0,1,0,2.6,0V167A1.3,1.3,0,0,0,224.1,165.68Z"/><path class="cls-6" d="M80.48,213.87H214.19a0,0,0,0,1,0,0v8.07a0,0,0,0,1,0,0h-136a0,0,0,0,1,0,0v-5.74A2.33,2.33,0,0,1,80.48,213.87Z"/><rect class="cls-13" x="80.81" y="80.14" width="212.99" height="3.91"/><rect class="cls-13" x="80.81" y="72.32" width="212.99" height="3.91"/><rect class="cls-5" x="83.43" y="76.23" width="207.76" height="3.91"/><rect class="cls-11" x="83.43" y="76.23" width="207.76" height="1.96"/><rect class="cls-14" x="255.17" y="117.56" width="11.92" height="4.63"/><rect class="cls-14" x="270.22" y="117.56" width="11.92" height="4.63"/><rect class="cls-14" x="262.74" y="109.84" width="11.92" height="4.63"/><rect class="cls-14" x="276.18" y="182.59" width="11.92" height="4.63"/><rect class="cls-14" x="283.75" y="174.88" width="11.92" height="4.63"/><rect class="cls-14" x="100.75" y="117.56" width="11.92" height="4.63"/><rect class="cls-14" x="115.8" y="117.56" width="11.92" height="4.63"/><rect class="cls-14" x="108.32" y="109.84" width="11.92" height="4.63"/><rect class="cls-14" x="123.37" y="109.84" width="11.92" height="4.63"/><rect class="cls-14" x="136.9" y="205.57" width="11.92" height="4.63" transform="translate(285.73 415.77) rotate(180)"/><rect class="cls-14" x="181.35" y="197.85" width="11.92" height="4.63" transform="translate(374.62 400.34) rotate(180)"/><rect class="cls-14" x="121.86" y="205.57" width="11.92" height="4.63" transform="translate(255.63 415.77) rotate(180)"/><rect class="cls-14" x="129.33" y="197.85" width="11.92" height="4.63" transform="translate(270.58 400.34) rotate(180)"/><rect class="cls-14" x="114.28" y="197.85" width="11.92" height="4.63" transform="translate(240.48 400.34) rotate(180)"/><rect class="cls-14" x="79.09" y="157.69" width="8.61" height="4.63"/><rect class="cls-14" x="84.56" y="149.98" width="8.61" height="4.63"/><path class="cls-6" d="M273.88,139.11a.89.89,0,0,0-.89.89v6.78a.89.89,0,0,0,1.78,0V140A.89.89,0,0,0,273.88,139.11Z"/><path class="cls-6" d="M273.88,199.75a.89.89,0,0,0-.89.89v6.78a.89.89,0,1,0,1.78,0v-6.78A.89.89,0,0,0,273.88,199.75Z"/><rect class="cls-14" x="178.66" y="117.56" width="5.96" height="4.63"/><rect class="cls-14" x="185.46" y="109.84" width="5.96" height="4.63"/><rect class="cls-14" x="169.52" y="109.84" width="11.92" height="4.63"/><rect class="cls-14" x="89.29" y="197.53" width="5.96" height="4.63"/><rect class="cls-14" x="79.16" y="189.81" width="11.92" height="4.63"/><rect class="cls-14" x="278.08" y="152.1" width="8.6" height="4.63"/><rect class="cls-14" x="198.93" y="137.58" width="6.02" height="4.63"/><rect class="cls-14" x="201.94" y="144.26" width="6.02" height="4.63"/><path class="cls-12" d="M100.32,100.86a12.43,12.43,0,0,0,12.43,12.43h0a12.43,12.43,0,0,0,12.43-12.43V93.1H100.32Z"/><path class="cls-12" d="M150,100.86a12.43,12.43,0,0,0,12.43,12.43h0a12.43,12.43,0,0,0,12.43-12.43V93.1H150Z"/><path class="cls-12" d="M199.73,100.86a12.43,12.43,0,0,0,12.43,12.43h0a12.43,12.43,0,0,0,12.43-12.43V93.1H199.73Z"/><path class="cls-12" d="M249.44,93.1v7.75a12.43,12.43,0,0,0,12.43,12.43h0a12.43,12.43,0,0,0,12.43-12.43V93.1Z"/><polygon class="cls-15" points="100.32 93.1 125.18 93.1 128.14 84.05 104.48 84.05 100.32 93.1"/><polygon class="cls-15" points="150.03 93.1 174.88 93.1 175.47 84.05 151.81 84.05 150.03 93.1"/><polygon class="cls-15" points="199.14 84.05 199.74 93.1 224.59 93.1 222.81 84.05 199.14 84.05"/><polygon class="cls-15" points="270.14 84.05 246.47 84.05 249.44 93.1 274.29 93.1 270.14 84.05"/><path class="cls-16" d="M75.47,100.86A12.43,12.43,0,0,0,87.9,113.28h0a12.43,12.43,0,0,0,12.43-12.43V93.1H75.47Z"/><path class="cls-16" d="M125.18,100.86a12.43,12.43,0,0,0,12.43,12.43h0A12.43,12.43,0,0,0,150,100.86V93.1H125.18Z"/><path class="cls-16" d="M174.88,100.86a12.43,12.43,0,1,0,24.85,0V93.1H174.88Z"/><path class="cls-16" d="M224.59,100.86A12.43,12.43,0,0,0,237,113.28h0a12.43,12.43,0,0,0,12.43-12.43V93.1H224.59Z"/><path class="cls-16" d="M274.29,93.1v7.75a12.43,12.43,0,0,0,12.43,12.43h0a12.43,12.43,0,0,0,12.43-12.43V93.1Z"/><polygon class="cls-17" points="75.47 93.1 100.32 93.1 104.48 84.05 80.81 84.05 75.47 93.1"/><polygon class="cls-17" points="125.18 93.1 150.03 93.1 151.81 84.05 128.14 84.05 125.18 93.1"/><polygon class="cls-17" points="175.47 84.05 174.88 93.1 199.74 93.1 199.14 84.05 175.47 84.05"/><polygon class="cls-17" points="222.81 84.05 224.59 93.1 249.44 93.1 246.47 84.05 222.81 84.05"/><polygon class="cls-17" points="293.8 84.05 270.14 84.05 274.29 93.1 299.15 93.1 293.8 84.05"/><rect class="cls-14" x="83.39" y="125.48" width="6.32" height="4.63"/><rect class="cls-7" x="97.82" y="126.47" width="101.12" height="61.34"/><rect class="cls-8" x="101.36" y="130.02" width="94.03" height="54.25"/><polygon class="cls-9" points="195.39 146.03 195.39 154.42 170.99 130.02 179.38 130.02 195.39 146.03"/><polygon class="cls-9" points="195.39 156.75 195.39 160.95 164.46 130.02 168.66 130.02 195.39 156.75"/><polygon class="cls-9" points="195.39 175.87 195.39 184.27 186.99 184.27 132.74 130.02 149.53 130.02 195.39 175.87"/><rect class="cls-10" x="101.36" y="130.02" width="94.03" height="1.9"/><rect class="cls-18" x="92.55" y="187.81" width="111.65" height="11.54"/><path class="cls-19" d="M197.28,181.05H99.48a4.69,4.69,0,0,0-4.69,4.69v2.07H202v-2.07A4.69,4.69,0,0,0,197.28,181.05Z"/><rect class="cls-15" x="92.55" y="187.81" width="111.64" height="2.47"/><path class="cls-20" d="M202,185.5H94.8c0,.08,0,.16,0,.24v2.07H202v-2.07C202,185.66,202,185.58,202,185.5Z"/><polygon class="cls-11" points="214.18 197.8 214.18 221.93 115.13 221.93 92.55 199.36 204.2 199.36 204.2 187.81 214.18 197.8"/><rect class="cls-7" x="71.35" y="22.18" width="231.92" height="46.34" rx="6.22" ry="6.22"/><rect class="cls-2" x="74.95" y="25.86" width="224.71" height="38.99" rx="4" ry="4"/><path class="cls-10" d="M299.66,29.85v.45H75v-.45a4,4,0,0,1,4-4H295.66A4,4,0,0,1,299.66,29.85Z"/><text class="cls-21" transform="translate(114.26 58.29)"><tspan class="cls-22">S</tspan><tspan class="cls-23" x="31.47" y="0">T</tspan><tspan class="cls-22" x="62.64" y="0">OR</tspan><tspan x="128.65" y="0">E</tspan></text><rect class="cls-24" x="96.24" y="68.52" width="3.71" height="3.79"/><rect class="cls-24" x="274.67" y="68.52" width="3.71" height="3.79"/></g></g></svg>