<?xml version="1.0" encoding="utf-8"?>
<!-- Generator: Adobe Illustrator 21.0.2, SVG Export Plug-In . SVG Version: 6.00 Build 0)  -->
<svg version="1.1" id="Layer_1" xmlns="http://www.w3.org/2000/svg" xmlns:xlink="http://www.w3.org/1999/xlink" x="0px" y="0px"
	 viewBox="0 0 163.5 212.9" style="enable-background:new 0 0 163.5 212.9;" xml:space="preserve">
<style type="text/css">
	.st0{fill:#EE2F3F;stroke:#2D3139;stroke-width:0.5373;stroke-miterlimit:10;}
	.st1{fill:#D7D7D7;}
	.st2{fill:#333333;}
	.st3{opacity:0.75;}
	.st4{fill:#FFFFFF;}
</style>
<g>
	<g>
		<g>
			<path class="st0" d="M159.1,81.4c0,54.1-77.3,127.4-77.3,127.4S4.5,135.6,4.5,81.4c0-42.7,34.6-77.3,77.3-77.3
				S159.1,38.7,159.1,81.4z M42.9,81.3c0,21.4,17.4,38.8,38.8,38.8c21.4,0,38.8-17.4,38.8-38.8c0-21.4-17.4-38.8-38.8-38.8
				C60.3,42.5,42.9,59.8,42.9,81.3z"/>
		</g>
	</g>
	<g>
		<g>
			<path class="st1" d="M81.8,4.1c-2.2,0-4.4,0.1-6.6,0.3c39.7,3.4,72,29.5,72,77c0,44.1-53.8,99.8-73.8,119
				c5.1,5.3,8.4,8.4,8.4,8.4s77.3-73.2,77.3-127.4C159.1,38.7,124.5,4.1,81.8,4.1z"/>
		</g>
	</g>
	<g>
		<g>
			<path class="st2" d="M81.8,211.5c-0.7,0-1.3-0.2-1.8-0.7c-3.2-3-78.2-74.7-78.2-129.3c0-44.1,35.9-80,80-80s80,35.9,80,80
				c0,54.6-75,126.3-78.2,129.3C83.1,211.2,82.4,211.5,81.8,211.5z M81.8,6.8C40.6,6.8,7.1,40.3,7.1,81.4
				c0,47.7,62.9,112.1,74.6,123.6c11.7-11.5,74.6-75.9,74.6-123.6C156.4,40.3,122.9,6.8,81.8,6.8z M81.8,122.8
				c-22.9,0-41.5-18.6-41.5-41.5c0-22.9,18.6-41.5,41.5-41.5c22.9,0,41.5,18.6,41.5,41.5C123.3,104.2,104.7,122.8,81.8,122.8z
				 M81.8,45.1c-19.9,0-36.1,16.2-36.1,36.1c0,19.9,16.2,36.1,36.1,36.1c19.9,0,36.1-16.2,36.1-36.1
				C117.9,61.4,101.7,45.1,81.8,45.1z"/>
		</g>
	</g>
	<g class="st3">
		<g>
			<path class="st4" d="M16.2,84.1c-1.5,0-2.7-1.2-2.7-2.7c0-29.5,18.8-55.5,46.8-64.8c1.4-0.5,2.9,0.3,3.4,1.7
				c0.5,1.4-0.3,2.9-1.7,3.4c-25.8,8.6-43.1,32.6-43.1,59.7C18.9,82.9,17.6,84.1,16.2,84.1z"/>
		</g>
	</g>
</g>
</svg>
