<?xml version="1.0" encoding="utf-8"?>
<!-- Generator: Adobe Illustrator 21.0.2, SVG Export Plug-In . SVG Version: 6.00 Build 0)  -->
<svg version="1.1" xmlns="http://www.w3.org/2000/svg" xmlns:xlink="http://www.w3.org/1999/xlink" x="0px" y="0px"
	 viewBox="0 0 1620.6 1932.8" style="enable-background:new 0 0 1620.6 1932.8;" xml:space="preserve">
<style type="text/css">
	.st0{display:none;}
	.st1{display:inline;}
	.st2{fill:#00A14B;}
	.st3{fill:#D8DADA;}
	.st4{fill:#C6C8CA;}
	.st5{fill:#FFFFFF;}
	.st6{fill:#3DA6D8;stroke:#262A31;stroke-width:6.9758;stroke-miterlimit:10;}
	.st7{fill:#353535;}
	.st8{fill:#FAA187;stroke:#262A31;stroke-width:6.9758;stroke-miterlimit:10;}
	.st9{fill:#A7A7A7;}
	.st10{fill:#E14534;}
	.st11{fill:#E7E8EC;stroke:#262A31;stroke-width:5.2087;stroke-miterlimit:10;}
	.st12{fill:url(#SVGID_1_);}
	.st13{fill:url(#SVGID_2_);}
	.st14{fill:url(#SVGID_3_);}
	.st15{fill:none;}
	.st16{fill:url(#SVGID_4_);}
	.st17{fill:url(#SVGID_5_);}
	.st18{fill:#3D548D;}
	.st19{fill:#C6DE89;}
	.st20{fill:#80D1E6;}
	.st21{fill:#4DC6E4;}
	.st22{fill:#B0D46E;}
	.st23{fill:#E1DAE4;}
</style>
<g id="usuario" class="st0">
	<g class="st1">
		<g>
			<g>
				<g>
					<g>
						<path class="st2" d="M810.3,1607.9c-103.8,0-203.1-19.8-294.2-55.9c155,161.2,294.2,270.8,294.2,270.8
							s139.2-109.6,294.2-270.8C1013.4,1588,914.1,1607.9,810.3,1607.9z"/>
						<g>
							<g>
								<path class="st2" d="M810.3,110c-386.5,0-699.9,313.4-699.9,699.9c0,178.4,66.8,341.1,176.7,464.7L1388,414.8
									C1261.9,230.8,1050.3,110,810.3,110z"/>
								<path class="st2" d="M287.2,1274.6c128.2,144.2,315,235.2,523.2,235.2c386.5,0,699.9-313.4,699.9-699.9
									c0-146.6-45.2-282.6-122.2-395.1L287.2,1274.6z"/>
							</g>
							<g>
								<path class="st2" d="M331.3,1240.1l-44.1,34.5L331.3,1240.1C228.6,1126,166,975.1,166,809.9c0-355.3,289-644.3,644.3-644.3
									c221.7,0,417.6,112.6,533.6,283.6l44.1-34.4l-44.1,34.4c0.1,0.1,0.1,0.2,0.2,0.3l44.1-34.4
									C1262.1,230.9,1050.4,110,810.3,110c-386.5,0-699.9,313.4-699.9,699.9c0,178.4,66.9,341.2,176.8,464.8L331.3,1240.1
									C331.3,1240.2,331.3,1240.2,331.3,1240.1z"/>
								<path class="st2" d="M1344.1,449.5c69.7,102.9,110.5,227,110.5,360.4c0,355.3-289,644.3-644.3,644.3
									c-190,0-361-82.7-479-214l-44.1,34.4c128.2,144.2,315,235.1,523.1,235.1c386.5,0,699.9-313.4,699.9-699.9
									c0-146.5-45.1-282.4-122-394.8L1344.1,449.5z"/>
							</g>
							<g>
								<g>
									<path class="st3" d="M481,1168.1c65.7,60.5,148.6,103.7,243,120.8c264.5,47.7,517.7-128.1,565.3-392.6
										c20.6-114.4-0.6-226.6-52.7-321L481,1168.1z"/>
									<path class="st4" d="M896.7,330.9C632.1,283.2,379,459,331.3,723.5c-30.7,170.2,31.2,335.5,149.6,444.6l755.7-592.9
										C1168.3,451.3,1046.8,358,896.7,330.9z"/>
								</g>
								
									<ellipse transform="matrix(0.1774 -0.9841 0.9841 0.1774 -130.4829 1463.6621)" class="st5" cx="810.3" cy="809.9" rx="445.4" ry="445.4"/>
							</g>
						</g>
					</g>
				</g>
			</g>
			<g>
				<g>
					<path class="st6" d="M527,1154.7c78.8,62.9,178.6,100.6,287.2,100.6c109,0,209.1-37.9,288-101.2
						c-36.5-139.3-151.4-241-287.5-241C678.4,913.2,563.4,1015.1,527,1154.7z"/>
					<path class="st7" d="M724.6,932.5c62.2-13.3,127.1-21.2,182.1-2.3c-3.3,61.9-16.5,114.9-79.8,114.9
						C755.2,1045.1,731.7,1002.6,724.6,932.5z"/>
					<path class="st8" d="M737.1,810.5c0,0-3.2,73.4,1.2,117.8c6,60.5,26.3,97.2,88,97.2c107.1,0,47.6-176.5,83.8-240.3
						C864.1,787.6,737.1,810.5,737.1,810.5z"/>
					<path class="st9" d="M737.1,810.5c0,0-0.4,5.3-0.8,14.3c16.6,57,41.5,77.4,76.9,96.4l42.7,16.8c13.1,7,25.8,10.2,37.2,10.2
						c6.5-55.7-3.4-127.2,17-163.1C864.1,787.6,737.1,810.5,737.1,810.5z"/>
					
						<ellipse transform="matrix(3.473612e-02 -0.9994 0.9994 3.473612e-02 200.5414 1540.3018)" class="st10" cx="897.7" cy="666.3" rx="75.9" ry="75.9"/>
					
						<ellipse transform="matrix(3.473649e-02 -0.9994 0.9994 3.473649e-02 313.1338 1357.9175)" class="st10" cx="859.5" cy="516.9" rx="75.9" ry="75.9"/>
					
						<ellipse transform="matrix(3.473649e-02 -0.9994 0.9994 3.473649e-02 231.0012 1275.8607)" class="st10" cx="776" cy="518.3" rx="75.9" ry="75.9"/>
					
						<ellipse transform="matrix(3.473649e-02 -0.9994 0.9994 3.473649e-02 92.2809 1284.6726)" class="st10" cx="711.2" cy="594.6" rx="75.9" ry="75.9"/>
					
						<ellipse transform="matrix(3.474552e-02 -0.9994 0.9994 3.474552e-02 -43.2227 1397.3414)" class="st10" cx="701.8" cy="721" rx="75.9" ry="75.9"/>
					<path class="st8" d="M754.2,782c0.6-24.2-18.5-44.5-42.6-45.3c-24.2-0.8-44.3,18.1-44.9,42.3c-0.6,24.2,18.5,44.5,42.6,45.3
						C733.5,825.1,753.6,806.2,754.2,782z"/>
					<path class="st8" d="M856.2,900.7l-39.6-1.4c-61.4-2.1-109.9-53.6-108.3-115l3.1-119.9c1.1-44.8,38.6-80.1,83.4-78.5l153.7,5.3
						l-5.8,228.1C941.5,865.9,902.8,902.4,856.2,900.7z"/>
					
						<ellipse transform="matrix(3.473649e-02 -0.9994 0.9994 3.473649e-02 312.5354 1464.0515)" class="st10" cx="914.2" cy="570.2" rx="75.9" ry="75.9"/>
					<path class="st10" d="M743.7,489c31.3,4.9,65.1,2.7,98-1.8c-29.1-3.3-61-7.3-92.6-8.2c-5.2,3.2-10.3,6.4-15.1,9.7
						C737,488.4,740.2,488.5,743.7,489z"/>
					<path class="st10" d="M894.9,552.8c-48.6,7.8-104.8,17.3-153.7,9.6c-29.6-4.6-39.3-36.6-30.2-56.9
						c-14.2,11.5-24.5,22.7-28.6,32.8c-22.8,56.4,15.9,144.9,15.9,144.9l31.1-5.2c0,0-6.8-73,38.8-77.7c41.4-4.2,153.9,6.8,179,9.1
						c1.1,0.1,1.9,0.2,2.6,0.2c0-0.1,0.3-30.1-0.2-67.1C931.3,546.5,912.9,549.9,894.9,552.8z"/>
					<path class="st10" d="M717.2,777.4c6.5-6.4,12-26,18.2-32.6c-10.5-27.9-15.1-35.3-6.4-66.6c-26.2-36.7-9.6-26.5-19.1-15.9
						c-9.5,10.5-7.7,74.8-7.7,74.8S714.7,761.5,717.2,777.4z"/>
				</g>
			</g>
		</g>
		<path class="st11" d="M944.3,790.6c-22-17.4-48.9-30-75.7-38.3c-45.5-14.1-61.3-1.2-89.8,9.9c-21.2,8.3-41,19.5-60.4,31.6
			c-9.2,5.8-12.2,20.6-10.6,36.2c1.4,13.7,2.1,23.1,14.6,35.6c30.7,26.2,56,38.1,93.8,42.1c13.3,1.1,42.6,3.5,78.1-9.2
			c17.4-6.4,34.4-15.2,46.6-24.9c1.3-1.1,5.6-4.3,6.7-5.5c6-7.1,9-17.6,9-36.6C956.6,809.6,950.2,795.8,944.3,790.6z"/>
	</g>
</g>
<g id="comercio">
	<g>
		<linearGradient id="SVGID_1_" gradientUnits="userSpaceOnUse" x1="516.1399" y1="1687.3689" x2="1104.5092" y2="1687.3689">
			<stop  offset="0" style="stop-color:#CD1B00"/>
			<stop  offset="0.3645" style="stop-color:#CA1B03"/>
			<stop  offset="0.6593" style="stop-color:#C01B0D"/>
			<stop  offset="0.929" style="stop-color:#AF1B1E"/>
			<stop  offset="1" style="stop-color:#A91B24"/>
		</linearGradient>
		<path class="st12" d="M810.3,1607.9c-103.8,0-203.1-19.8-294.2-55.9c155,161.2,294.2,270.8,294.2,270.8s139.2-109.6,294.2-270.8
			C1013.4,1588,914.1,1607.9,810.3,1607.9z"/>
		<g>
			<g>
				<linearGradient id="SVGID_2_" gradientUnits="userSpaceOnUse" x1="110.4265" y1="692.2932" x2="1388.0056" y2="692.2932">
					<stop  offset="0" style="stop-color:#CD1B00"/>
					<stop  offset="0.3645" style="stop-color:#CA1B03"/>
					<stop  offset="0.6593" style="stop-color:#C01B0D"/>
					<stop  offset="0.929" style="stop-color:#AF1B1E"/>
					<stop  offset="1" style="stop-color:#A91B24"/>
				</linearGradient>
				<path class="st13" d="M810.3,110c-386.5,0-699.9,313.4-699.9,699.9c0,178.4,66.8,341.1,176.7,464.7L1388,414.8
					C1261.9,230.8,1050.3,110,810.3,110z"/>
				<linearGradient id="SVGID_3_" gradientUnits="userSpaceOnUse" x1="287.1501" y1="962.2888" x2="1510.2218" y2="962.2888">
					<stop  offset="0" style="stop-color:#CD1B00"/>
					<stop  offset="0.3645" style="stop-color:#CA1B03"/>
					<stop  offset="0.6593" style="stop-color:#C01B0D"/>
					<stop  offset="0.929" style="stop-color:#AF1B1E"/>
					<stop  offset="1" style="stop-color:#A91B24"/>
				</linearGradient>
				<path class="st14" d="M287.2,1274.6c128.2,144.2,315,235.2,523.2,235.2c386.5,0,699.9-313.4,699.9-699.9
					c0-146.6-45.2-282.6-122.2-395.1L287.2,1274.6z"/>
			</g>
			<g>
				<path class="st15" d="M810.3,165.6c-355.3,0-644.3,289-644.3,644.3c0,165.2,62.6,316.1,165.2,430.3c0,0,0,0,0.1,0.1
					l1012.8-790.7c-0.1-0.1-0.1-0.2-0.2-0.3C1228,278.2,1032.1,165.6,810.3,165.6z"/>
				<path class="st15" d="M810.3,1454.2c355.3,0,644.3-289,644.3-644.3c0-133.4-40.8-257.5-110.5-360.4L331.3,1240.2
					C449.4,1371.5,620.3,1454.2,810.3,1454.2z"/>
				<linearGradient id="SVGID_4_" gradientUnits="userSpaceOnUse" x1="110.4265" y1="692.3257" x2="1388.2003" y2="692.3257">
					<stop  offset="0" style="stop-color:#CD1B00"/>
					<stop  offset="0.3645" style="stop-color:#CA1B03"/>
					<stop  offset="0.6593" style="stop-color:#C01B0D"/>
					<stop  offset="0.929" style="stop-color:#AF1B1E"/>
					<stop  offset="1" style="stop-color:#A91B24"/>
				</linearGradient>
				<path class="st16" d="M331.3,1240.1l-44.1,34.5L331.3,1240.1C228.6,1126,166,975.1,166,809.9c0-355.3,289-644.3,644.3-644.3
					c221.7,0,417.6,112.6,533.6,283.6l44.1-34.4l-44.1,34.4c0.1,0.1,0.1,0.2,0.2,0.3l44.1-34.4C1262.1,230.9,1050.4,110,810.3,110
					c-386.5,0-699.9,313.4-699.9,699.9c0,178.4,66.9,341.2,176.8,464.8L331.3,1240.1C331.3,1240.2,331.3,1240.2,331.3,1240.1z"/>
				<linearGradient id="SVGID_5_" gradientUnits="userSpaceOnUse" x1="287.205" y1="962.426" x2="1510.2218" y2="962.426">
					<stop  offset="0" style="stop-color:#CD1B00"/>
					<stop  offset="0.3645" style="stop-color:#CA1B03"/>
					<stop  offset="0.6593" style="stop-color:#C01B0D"/>
					<stop  offset="0.929" style="stop-color:#AF1B1E"/>
					<stop  offset="1" style="stop-color:#A91B24"/>
				</linearGradient>
				<path class="st17" d="M1344.1,449.5c69.7,102.9,110.5,227,110.5,360.4c0,355.3-289,644.3-644.3,644.3c-190,0-361-82.7-479-214
					l-44.1,34.4c128.2,144.2,315,235.1,523.1,235.1c386.5,0,699.9-313.4,699.9-699.9c0-146.5-45.1-282.4-122-394.8L1344.1,449.5z"/>
			</g>
			<g>
				<g>
					<path class="st3" d="M481,1168.1c65.7,60.5,148.6,103.7,243,120.8c264.5,47.7,517.7-128.1,565.3-392.6
						c20.6-114.4-0.6-226.6-52.7-321L481,1168.1z"/>
					<path class="st4" d="M896.7,330.9C632.1,283.2,379,459,331.3,723.5c-30.7,170.2,31.2,335.5,149.6,444.6l755.7-592.9
						C1168.3,451.3,1046.8,358,896.7,330.9z"/>
				</g>
				
					<ellipse transform="matrix(0.1774 -0.9841 0.9841 0.1774 -130.4829 1463.6621)" class="st5" cx="810.3" cy="809.9" rx="445.4" ry="445.4"/>
			</g>
		</g>
	</g>
	<g>
		
			<image style="overflow:visible;opacity:0.75;" width="3080" height="2569" xlink:href="F7FE33A6CFEE1BE8.png"  transform="matrix(0.24 0 0 0.24 472.9382 562.3622)">
		</image>
		<g>
			<g>
				<g>
					<path class="st18" d="M1136.5,745.8c-0.1-0.3-0.1-0.7-0.2-1c-0.2-0.4-0.4-0.7-0.6-1c-0.1-0.2-0.2-0.4-0.4-0.6
						c0-0.1-0.1-0.1-0.2-0.1c-0.1-0.1-0.1-0.2-0.2-0.3l-79.2-89.6v-14.6c0-15.7-12.6-28.5-28-28.5H634.9c-15.5,0-28,12.8-28,28.5
						v12.8l-79.5,91.8c0,0-0.1,0-0.1,0.1c0,0.1-0.1,0.1-0.1,0.2l0,0.1c-0.3,0.4-0.6,0.8-0.8,1.2c-0.1,0.3-0.2,0.6-0.3,0.9
						c-0.1,0.2-0.1,0.5-0.1,0.7c0,0.2-0.1,0.4-0.1,0.6c0.5,26,22,47.2,48,47.2c2.8,0,5.6-0.3,8.4-0.8v281.9
						c0,15.7,12.6,28.5,28,28.5h134.5h173h134.5c15.5,0,28-12.8,28-28.5V793.2c2.7,0.5,5.5,0.8,8.4,0.8c25.9,0,47.4-21.1,48-47.1
						c0-0.1,0-0.1,0-0.2C1136.7,746.4,1136.6,746.1,1136.5,745.8z"/>
					<g>
						<g>
							<g>
								<g>
									<g>
										<path class="st19" d="M591.7,657.4c-2.8,0-5.1-2.3-5.1-5.1v-34.1c0-12.9,10.3-23.4,22.9-23.4h392.7
											c12.7,0,22.9,10.5,22.9,23.4v34.1c0,2.8-2.3,5.1-5.1,5.1H591.7z"/>
									</g>
									<g>
										<g>
											<path class="st18" d="M1002.2,599.9c9.9,0,17.9,8.2,17.9,18.3v34.1H591.7v-34.1c0-10.1,8-18.3,17.8-18.3H1002.2
												 M1002.2,589.7H609.5c-15.4,0-28,12.8-28,28.5v34.1c0,5.6,4.5,10.2,10.2,10.2H1020c5.6,0,10.2-4.5,10.2-10.2v-34.1
												C1030.2,602.5,1017.6,589.7,1002.2,589.7L1002.2,589.7z"/>
										</g>
									</g>
								</g>
							</g>
							<g>
								<g>
									<g>
										<path class="st20" d="M584.8,1078.1c-12.6,0-22.9-10.5-22.9-23.4v-354c0-2.8,2.3-5.1,5.1-5.1h477.7c2.8,0,5.1,2.3,5.1,5.1
											v354c0,12.9-10.3,23.4-22.9,23.4H584.8z"/>
									</g>
									<g>
										<path class="st18" d="M1044.7,700.7v354c0,10.1-8,18.3-17.8,18.3H584.8c-9.9,0-17.8-8.2-17.8-18.3v-354H1044.7
											 M1044.7,690.5H567c-5.6,0-10.2,4.5-10.2,10.2v354c0,15.7,12.6,28.5,28,28.5h442.1c15.5,0,28-12.8,28-28.5v-354
											C1054.9,695.1,1050.3,690.5,1044.7,690.5L1044.7,690.5z"/>
									</g>
								</g>
								<g>
									<path class="st21" d="M979.6,700.7c20,24.8,29.9,55.5,35.9,87.6c8.4,44.8,8.4,89.9,4.1,135.1c-2.5,25.8-0.5,55.4-11.5,79.5
										c-12.3,27.1-37.7,33.4-64.7,34.9c-49.4,2.6-123.4,0.1-172.8-0.6c-38.6-0.6-106.4,4.4-143.4-9.6
										c-36.6-13.9-53.6-42.2-60.2-75.2v102.3c0,10.1,8,18.3,17.8,18.3h442.1c9.9,0,17.8-8.2,17.8-18.3v-354H979.6z"/>
								</g>
							</g>
							<g>
								<g>
									<g>
										<g>
											<polygon class="st19" points="591.1,726.4 505.6,726.4 588,631.3 649.8,631.3 											"/>
											<path class="st18" d="M591.1,731.5h-85.6c-2,0-3.8-1.2-4.6-3c-0.8-1.8-0.5-3.9,0.8-5.4l82.4-95.2c1-1.1,2.4-1.7,3.8-1.7
												h61.8c1.8,0,3.5,1,4.4,2.6c0.9,1.6,0.9,3.6-0.1,5.1l-58.7,95.2C594.6,730.6,592.9,731.5,591.1,731.5z M516.7,721.3h71.6
												l52.4-85h-50.4L516.7,721.3z"/>
										</g>
									</g>
									<g>
										<g>
											<polygon class="st5" points="676.7,726.4 591.1,726.4 649.8,631.3 711.7,631.3 											"/>
											<path class="st18" d="M676.7,731.5h-85.6c-1.8,0-3.5-1-4.4-2.6c-0.9-1.6-0.8-3.6,0.1-5.2l58.7-95.2
												c0.9-1.5,2.6-2.4,4.3-2.4h61.8c1.7,0,3.2,0.8,4.2,2.2c0.9,1.4,1.2,3.1,0.6,4.7l-34.9,95.2
												C680.8,730.2,678.8,731.5,676.7,731.5z M600.3,721.3h72.9l31.2-85h-51.7L600.3,721.3z"/>
										</g>
									</g>
									<g>
										<g>
											<polygon class="st19" points="762.8,726.4 677.2,726.4 712,631.3 773.9,631.3 											"/>
											<path class="st18" d="M762.8,731.5h-85.6c-1.7,0-3.2-0.8-4.2-2.2c-0.9-1.4-1.2-3.1-0.6-4.7l34.8-95.1
												c0.7-2,2.6-3.3,4.8-3.3h61.9c1.5,0,2.8,0.6,3.8,1.7c1,1.1,1.4,2.5,1.3,4L767.8,727C767.5,729.6,765.4,731.5,762.8,731.5z
												 M684.5,721.3h73.8l9.9-85h-52.6L684.5,721.3z"/>
										</g>
									</g>
									<g>
										<g>
											<polygon class="st5" points="848.4,726.4 762.8,726.4 773.9,631.3 835.7,631.3 											"/>
											<path class="st18" d="M848.5,731.5c-0.1,0-0.1,0-0.1,0h-85.6c-1.5,0-2.8-0.6-3.8-1.7c-1-1.1-1.4-2.5-1.2-4l11.1-95.2
												c0.3-2.6,2.5-4.5,5-4.5h61.9c2.5,0,4.7,1.9,5,4.4l12.5,94.2c0.2,0.5,0.3,1.1,0.3,1.6
												C853.6,729.2,851.3,731.5,848.5,731.5z M768.5,721.3h74.1l-11.3-85h-52.9L768.5,721.3z"/>
										</g>
									</g>
									<g>
										<g>
											<polygon class="st19" points="934.4,726.4 848.9,726.4 836.1,631.3 898,631.3 											"/>
											<path class="st18" d="M934.5,731.5c0,0-0.1,0-0.1,0h-85.5c-2.6,0-4.7-1.9-5.1-4.4l-12.8-95.2c-0.2-1.5,0.2-2.9,1.2-4
												c1-1.1,2.4-1.7,3.8-1.7H898c2.1,0,4,1.3,4.7,3.3l36.2,94.3c0.5,0.8,0.8,1.7,0.8,2.7C939.6,729.2,937.4,731.5,934.5,731.5
												z M853.3,721.3H927l-32.6-85h-52.5L853.3,721.3z"/>
										</g>
									</g>
									<g>
										<g>
											<polygon class="st5" points="1020,726.4 934.4,726.4 898,631.3 959.8,631.3 											"/>
											<path class="st18" d="M1020.1,731.5c0,0-0.1,0-0.1,0h-85.6c-2.1,0-4-1.3-4.8-3.3l-36.5-95.2c-0.6-1.6-0.4-3.3,0.5-4.7
												c0.9-1.4,2.5-2.2,4.2-2.2h61.9c1.7,0,3.4,0.9,4.3,2.4l59.8,94.4c0.8,0.9,1.4,2.1,1.4,3.4
												C1025.2,729.2,1022.9,731.5,1020.1,731.5z M937.9,721.3h72.8l-53.8-85h-51.7L937.9,721.3z"/>
										</g>
									</g>
									<g>
										<g>
											<polygon class="st19" points="1106.1,726.4 1020.5,726.4 960.2,631.3 1022,631.3 											"/>
											<path class="st18" d="M1106.2,731.5c0,0-0.1,0-0.1,0h-85.6c-1.7,0-3.4-0.9-4.3-2.4L955.9,634c-1-1.6-1.1-3.6-0.2-5.2
												c0.9-1.6,2.6-2.6,4.5-2.6h61.9c1.5,0,2.8,0.6,3.8,1.7l83.5,94.5c1.2,0.9,1.9,2.4,1.9,4
												C1111.3,729.2,1109,731.5,1106.2,731.5z M1023.3,721.3h71.5l-75.1-85h-50.3L1023.3,721.3z"/>
										</g>
									</g>
								</g>
								<g>
									<path class="st22" d="M505.5,726.4c0.4,23.4,19.4,42.2,42.9,42.2c23.5,0,42.5-18.8,42.9-42.2H505.5z"/>
									<path class="st18" d="M548.4,773.7c-26,0-47.5-21.2-48-47.1c0-1.4,0.5-2.7,1.5-3.7c1-1,2.3-1.5,3.6-1.5h85.8
										c1.4,0,2.7,0.6,3.6,1.5c1,1,1.5,2.3,1.5,3.7C595.9,752.5,574.4,773.7,548.4,773.7z M511,731.5c2.9,18.1,18.7,32,37.4,32
										c18.7,0,34.5-13.9,37.4-32H511z"/>
								</g>
								<g>
									<g>
										<path class="st23" d="M591.3,726.4c0.5,23.4,19.5,42.2,42.9,42.2c23.5,0,42.5-18.8,43-42.2H591.3z"/>
									</g>
									<g>
										<path class="st18" d="M634.2,773.7c-26,0-47.5-21.2-48-47.1c0-1.4,0.5-2.7,1.5-3.7c1-1,2.3-1.5,3.6-1.5h85.9
											c1.3,0,2.7,0.6,3.6,1.5c0.9,1,1.5,2.3,1.4,3.7C681.7,752.5,660.2,773.7,634.2,773.7z M596.9,731.5
											c2.9,18.1,18.7,32,37.4,32c18.7,0,34.5-13.9,37.4-32H596.9z"/>
									</g>
								</g>
								<g>
									<path class="st22" d="M677.1,726.4c0.4,23.4,19.4,42.2,42.9,42.2c23.5,0,42.5-18.8,42.9-42.2H677.1z"/>
									<path class="st18" d="M720,773.7c-26,0-47.5-21.2-48-47.1c0-1.4,0.5-2.7,1.5-3.7c1-1,2.3-1.5,3.6-1.5h85.8
										c1.4,0,2.7,0.6,3.6,1.5c1,1,1.5,2.3,1.4,3.7C767.5,752.5,746,773.7,720,773.7z M682.6,731.5c2.9,18.1,18.7,32,37.4,32
										c18.7,0,34.5-13.9,37.4-32H682.6z"/>
								</g>
								<g>
									<g>
										<path class="st23" d="M762.9,726.4c0.5,23.4,19.5,42.2,42.9,42.2c23.4,0,42.5-18.8,42.9-42.2H762.9z"/>
									</g>
									<g>
										<path class="st18" d="M805.8,773.7c-26,0-47.5-21.2-48-47.1c0-1.4,0.5-2.7,1.5-3.7c0.9-1,2.3-1.5,3.6-1.5h85.8
											c1.4,0,2.7,0.6,3.6,1.5c0.9,1,1.5,2.3,1.4,3.7C853.3,752.5,831.8,773.7,805.8,773.7z M768.5,731.5
											c2.9,18.1,18.7,32,37.4,32c18.7,0,34.5-13.9,37.3-32H768.5z"/>
									</g>
								</g>
								<g>
									<path class="st22" d="M848.7,726.4c0.5,23.4,19.4,42.2,42.9,42.2c23.5,0,42.5-18.8,42.9-42.2H848.7z"/>
									<path class="st18" d="M891.6,773.7c-26,0-47.5-21.2-48-47.1c0-1.4,0.5-2.7,1.5-3.7c1-1,2.2-1.5,3.6-1.5h85.8
										c1.4,0,2.7,0.6,3.6,1.5c1,1,1.5,2.3,1.5,3.7C939.1,752.5,917.6,773.7,891.6,773.7z M854.3,731.5c2.9,18.1,18.7,32,37.3,32
										c18.7,0,34.5-13.9,37.4-32H854.3z"/>
								</g>
								<g>
									<g>
										<path class="st23" d="M934.5,726.4c0.5,23.4,19.5,42.2,42.9,42.2c23.4,0,42.4-18.8,42.9-42.2H934.5z"/>
									</g>
									<g>
										<path class="st18" d="M977.5,773.7c-25.9,0-47.5-21.1-48-47.1c0-1.4,0.5-2.7,1.5-3.7c0.9-1,2.3-1.5,3.6-1.5h85.8
											c1.4,0,2.7,0.6,3.6,1.5c0.9,1,1.5,2.3,1.5,3.7C1024.9,752.5,1003.4,773.7,977.5,773.7z M940.1,731.5
											c2.9,18.1,18.7,32,37.4,32c18.7,0,34.5-13.9,37.3-32H940.1z"/>
									</g>
								</g>
								<g>
									<path class="st22" d="M1020.3,726.4c0.4,23.4,19.5,42.2,42.9,42.2c23.5,0,42.5-18.8,42.9-42.2H1020.3z"/>
									<path class="st18" d="M1063.3,773.7c-26,0-47.5-21.2-48-47.1c0-1.4,0.5-2.7,1.5-3.7c1-1,2.3-1.5,3.6-1.5h85.8
										c1.4,0,2.7,0.6,3.6,1.5c1,1,1.5,2.3,1.5,3.7C1110.8,752.5,1089.2,773.7,1063.3,773.7z M1025.9,731.5
										c2.9,18.1,18.7,32,37.4,32c18.7,0,34.5-13.9,37.4-32H1025.9z"/>
								</g>
							</g>
						</g>
						<g>
							<g>
								<path class="st19" d="M719.3,1078.1c-2.8,0-5.1-2.3-5.1-5.1V848.8c0-15.2,12.3-27.5,27.5-27.5h128.1
									c15.2,0,27.5,12.3,27.5,27.5v224.2c0,2.8-2.3,5.1-5.1,5.1H719.3z"/>
							</g>
							<g>
								<path class="st18" d="M869.9,826.4c12.4,0,22.4,10,22.4,22.4v224.2h-173V848.8c0-12.4,10-22.4,22.4-22.4H869.9 M869.9,816.2
									H741.8c-18,0-32.6,14.6-32.6,32.6v224.2c0,5.6,4.6,10.2,10.2,10.2h173c5.6,0,10.2-4.6,10.2-10.2V848.8
									C902.5,830.8,887.9,816.2,869.9,816.2L869.9,816.2z"/>
							</g>
						</g>
					</g>
				</g>
			</g>
		</g>
	</g>
</g>
</svg>
